<svg width="894" height="1080" viewBox="0 0 894 1080" fill="none" xmlns="http://www.w3.org/2000/svg">
<g clip-path="url(#clip0_104_1437)">
<path d="M179.153 325.537C231.229 337.33 283.006 304.674 294.8 252.598C306.593 200.522 273.937 148.746 221.861 136.952C169.785 125.159 118.008 157.814 106.215 209.89C94.4215 261.967 127.077 313.743 179.153 325.537Z" stroke="#231812" stroke-miterlimit="10"/>
<path d="M138.417 641.238L105.886 637.928L91.4879 525.893C88.8471 505.39 91.1861 484.546 98.2832 465.133L141.902 345.816L170.013 356.092L125.765 478.469C121.758 489.547 120.448 501.429 121.957 513.118L138.427 641.242L138.417 641.238Z" fill="#FAF6ED" stroke="#231812" stroke-miterlimit="10"/>
<path d="M172.181 583.278L63.2436 602.327C56.0896 603.578 51.3043 610.392 52.5553 617.546L63.3729 679.407C64.6239 686.561 71.4375 691.347 78.5915 690.096L187.528 671.046C194.682 669.795 199.468 662.981 198.217 655.827L187.399 593.966C186.148 586.812 179.335 582.027 172.181 583.278Z" fill="#EBE1D2" stroke="#231812" stroke-miterlimit="10"/>
<path d="M279.412 206.83L154.545 161.182L92.8997 329.807L217.767 375.456L279.412 206.83Z" fill="#EBE1D2" stroke="#231812" stroke-miterlimit="10"/>
<path d="M186.988 266.057C199.925 270.786 214.246 264.133 218.975 251.196C223.704 238.26 217.051 223.939 204.114 219.209C191.178 214.48 176.857 221.134 172.127 234.07C167.398 247.007 174.052 261.328 186.988 266.057Z" fill="#FAF6ED" stroke="#231812" stroke-miterlimit="10"/>
</g>
<g clip-path="url(#clip1_104_1437)">
<path d="M266.765 546.865L273.872 603.89C278.174 638.396 317.879 655.665 346.054 635.302L403.229 593.968C428.563 575.648 464.394 587.583 473.687 617.433L499.585 700.61C507.809 727.024 537.41 740.149 562.503 728.504L659.278 683.597C683.154 672.524 711.342 684.786 719.496 709.815L752.024 809.587C759.538 832.621 783.708 845.81 807.139 839.644L914.948 811.285" stroke="#432F1F" stroke-miterlimit="10"/>
<path d="M277.188 519.716L281.91 577.965C284.745 612.894 324.18 631.789 353.178 612.116L409.537 573.879C435.481 556.274 471.036 569.392 479.329 599.623L502.591 684.442C509.911 711.139 539.091 725.269 564.588 714.436L662.944 672.647C687.163 662.356 714.938 675.543 722.278 700.823L751.949 803.062C758.647 826.154 782.073 840.11 805.564 835.01L914.977 811.279" stroke="#432F1F" stroke-miterlimit="10"/>
<path d="M288.794 493.049L291.088 552.471C292.452 587.737 331.553 608.241 361.321 589.3L416.704 554.088C443.225 537.218 478.462 551.521 485.74 582.088L506.287 668.43C512.707 695.397 541.433 710.497 567.288 700.493L667.069 661.888C691.615 652.389 718.941 666.479 725.45 691.978L752.114 796.519C758.009 819.616 780.669 834.319 804.165 830.284L914.964 811.275" stroke="#432F1F" stroke-miterlimit="10"/>
<path d="M1499.44 1051.19L1408.98 942.416C1400.4 932.108 1387.72 926.073 1374.31 925.932L1325.51 925.409C1311.47 925.254 1298.3 918.67 1289.74 907.553L1249.38 855.044C1236.29 838 1213.09 832.377 1193.63 841.541L1166.43 854.361C1147.07 863.481 1123.95 857.951 1110.82 841.048L1084.2 806.778C1073.85 793.453 1056.99 786.904 1040.36 789.754L914.981 811.266" stroke="#432F1F" stroke-miterlimit="10"/>
<path d="M301.544 466.909L301.347 527.432C301.231 562.964 339.907 585.053 370.462 566.889L424.707 534.632C451.781 518.532 486.653 533.994 492.909 564.867L510.661 652.573C516.164 679.764 544.411 695.827 570.592 686.669L671.629 651.315C696.468 642.627 723.327 657.585 729.006 683.291L752.554 789.98C757.65 813.07 779.515 828.472 802.977 825.491L914.964 811.275" stroke="#432F1F" stroke-miterlimit="10"/>
<path d="M1486.69 1077.33L1401 966.216C1393.06 955.911 1381.09 949.487 1368.12 948.538L1315.99 944.723C1302.11 943.71 1289.45 936.423 1281.59 924.952L1244.83 871.28C1232.79 853.69 1210.2 846.754 1190.37 854.547L1162.01 865.69C1142.19 873.486 1119.6 866.55 1107.56 848.973L1084.13 814.796C1074.44 800.653 1057.65 793.116 1040.64 795.286L914.929 811.252" stroke="#432F1F" stroke-miterlimit="10"/>
<path d="M315.41 441.345L312.684 502.903C311.093 538.634 349.286 562.264 380.558 544.928L433.523 515.545C461.134 500.224 495.601 516.835 500.817 547.982L515.71 636.925C520.294 664.297 548.024 681.312 574.501 673.007L676.637 640.973C701.745 633.088 728.103 648.935 732.939 674.801L753.259 783.484C757.563 806.541 778.617 822.597 801.994 820.656L914.957 811.301" stroke="#432F1F" stroke-miterlimit="10"/>
<path d="M1472.82 1102.9L1392.05 989.727C1384.7 979.429 1373.42 972.638 1360.89 970.965L1305.72 963.585C1292 961.746 1279.84 953.791 1272.67 941.94L1239.6 887.336C1228.65 869.251 1206.74 861.032 1186.61 867.447L1157.12 876.837C1136.9 883.27 1114.92 874.975 1104.02 856.781L1083.7 822.898C1074.73 807.955 1058.06 799.4 1040.7 800.84L914.955 811.259" stroke="#432F1F" stroke-miterlimit="10"/>
<path d="M330.391 416.411L325.067 478.902C322.021 514.755 359.639 539.916 391.608 523.429L443.151 496.828C471.275 482.322 505.287 500.067 509.461 531.445L521.435 621.485C525.104 649.027 552.268 666.967 579.028 659.512L682.076 630.829C707.432 623.77 733.248 640.453 737.244 666.466L754.22 776.96C757.755 799.95 777.967 816.622 801.206 815.708L914.939 811.268" stroke="#432F1F" stroke-miterlimit="10"/>
<path d="M1457.84 1127.82L1382.13 1012.86C1375.36 1002.56 1364.72 995.442 1352.62 993.112L1294.72 981.906C1281.14 979.277 1269.48 970.654 1263 958.436L1233.68 903.151C1223.85 884.622 1202.66 875.147 1182.3 880.186L1151.73 887.739C1131.2 892.817 1109.88 883.155 1100.14 864.388L1082.84 830.996C1074.68 815.261 1058.17 805.657 1040.44 806.337L914.946 811.242" stroke="#432F1F" stroke-miterlimit="10"/>
<path d="M346.444 392.165L338.485 455.524C333.975 491.427 370.956 518.088 403.6 502.486L453.58 478.574C482.189 464.888 515.702 483.771 518.821 515.322L527.836 606.309C530.573 633.974 557.153 652.808 584.161 646.233L687.953 620.954C713.515 614.725 738.777 632.239 741.93 658.358L755.468 770.499C758.227 793.392 777.608 810.642 800.655 810.754L914.935 811.281" stroke="#432F1F" stroke-miterlimit="10"/>
<path d="M1441.78 1152.08L1371.27 1035.61C1365.04 1025.32 1355 1017.89 1343.35 1014.95L1283 999.718C1269.57 996.327 1258.39 987.033 1252.62 974.439L1227.08 918.716C1218.38 899.772 1197.99 889.099 1177.48 892.761L1145.87 898.394C1125.11 902.096 1104.5 891.119 1096 871.813L1081.59 839.113C1074.3 822.591 1058 811.91 1039.95 811.826L914.984 811.253" stroke="#432F1F" stroke-miterlimit="10"/>
<path d="M363.534 368.638L352.892 432.785C346.94 468.659 383.219 496.804 416.476 482.112L464.768 460.787C493.838 447.956 526.809 467.936 528.881 499.635L534.882 591.402C536.699 619.153 562.652 638.882 589.881 633.182L694.244 611.343C719.992 605.964 744.659 624.257 746.971 650.469L756.983 764.069C758.988 786.842 777.505 804.634 800.329 805.736L914.939 811.268" stroke="#432F1F" stroke-miterlimit="10"/>
<path d="M1424.69 1175.6L1359.47 1057.91C1353.76 1047.61 1344.29 1039.91 1333.04 1036.41L1270.57 1016.99C1257.27 1012.86 1246.58 1002.89 1241.53 989.918L1219.76 934.006C1212.24 914.7 1192.68 902.857 1172.09 905.142L1139.52 908.762C1118.58 911.093 1098.76 898.822 1091.52 879.038L1079.86 847.2C1073.54 829.927 1057.49 818.127 1039.12 817.252L914.968 811.262" stroke="#432F1F" stroke-miterlimit="10"/>
<path d="M381.65 345.87L368.266 410.718C360.884 446.514 396.382 476.079 430.254 462.339L476.725 443.481C506.227 431.512 538.613 452.592 539.631 484.409L542.573 576.821C543.461 604.64 568.772 625.219 596.177 620.408L700.934 602.045C726.83 597.506 750.884 616.589 752.358 642.838L758.77 757.711C760.027 780.339 777.665 798.628 800.242 800.7L914.964 811.275" stroke="#432F1F" stroke-miterlimit="10"/>
<path d="M1406.59 1198.36L1346.73 1079.73C1341.53 1069.42 1332.6 1061.44 1321.76 1057.43L1257.49 1033.69C1244.32 1028.83 1234.12 1018.18 1229.82 1004.82L1211.82 948.962C1205.49 929.326 1186.81 916.366 1166.2 917.307L1132.74 918.838C1111.7 919.801 1092.72 906.263 1086.78 886.055L1077.72 855.245C1072.43 837.254 1056.71 824.327 1038.05 822.612L914.977 811.279" stroke="#432F1F" stroke-miterlimit="10"/>
<path d="M400.72 323.924L384.565 389.369C375.762 425.005 410.428 455.977 444.853 443.214L489.394 426.711C519.292 415.636 551.062 437.78 551.014 469.657L550.884 562.557C550.839 590.402 575.473 611.808 603.037 607.897L708.011 593.003C734.038 589.314 757.446 609.163 758.071 635.433L760.821 751.397C761.353 773.844 778.106 792.6 800.357 795.634L914.955 811.259" stroke="#432F1F" stroke-miterlimit="10"/>
<path d="M1387.51 1220.3L1333.09 1101.02C1328.36 1090.66 1319.94 1082.44 1309.49 1077.97L1243.73 1049.8C1230.69 1044.2 1220.97 1032.89 1217.45 1019.14L1203.17 963.592C1198.07 943.689 1180.3 929.634 1159.76 929.24L1125.51 928.583C1104.43 928.183 1086.36 913.411 1081.76 892.844L1075.13 863.197C1070.96 844.54 1055.63 830.445 1036.68 827.867L914.964 811.275" stroke="#432F1F" stroke-miterlimit="10"/>
<path d="M420.749 302.828L401.764 368.786C391.567 404.214 425.333 436.533 460.271 424.791L502.765 410.517C533.027 400.353 564.141 423.551 563.035 455.462L559.805 548.692C558.839 576.525 582.769 598.751 610.451 595.741L715.457 584.336C741.573 581.5 764.328 602.085 764.099 628.348L763.116 745.203C762.926 767.457 778.796 786.625 800.701 790.588L914.952 811.272" stroke="#432F1F" stroke-miterlimit="10"/>
<path d="M1367.49 1241.4L1318.55 1121.75C1314.31 1111.36 1306.37 1102.89 1296.28 1097.97L1229.37 1065.3C1216.45 1058.99 1207.24 1046.97 1204.52 1032.84L1193.92 977.824C1190.05 957.698 1173.25 942.605 1152.83 940.889L1117.87 937.959C1096.81 936.197 1079.71 920.247 1076.49 899.36L1072.11 870.99C1069.12 851.712 1054.25 836.444 1035.06 832.972L914.978 811.224" stroke="#432F1F" stroke-miterlimit="10"/>
<path d="M441.673 282.622L419.83 348.988C408.255 384.143 441.051 417.763 476.483 407.065L516.826 394.893C547.435 385.651 577.833 409.873 575.665 441.776L569.326 535.167C567.445 562.962 590.628 585.968 618.411 583.869L723.27 575.947C749.459 573.973 771.513 595.268 770.45 621.5L765.688 739.055C764.796 761.094 779.767 780.629 801.275 785.508L914.955 811.259" stroke="#432F1F" stroke-miterlimit="10"/>
<path d="M1346.57 1261.61L1303.13 1141.88C1299.34 1131.44 1291.88 1122.74 1282.14 1117.39L1214.37 1080.19C1201.56 1073.15 1192.89 1060.44 1191.02 1045.95L1184.02 991.676C1181.4 971.374 1165.61 955.281 1145.37 952.287L1109.84 947.021C1088.87 943.918 1072.78 926.816 1070.97 905.697L1068.64 878.708C1066.94 858.875 1052.6 842.422 1033.18 838.021L914.962 811.233" stroke="#432F1F" stroke-miterlimit="10"/>
<path d="M463.448 263.362L438.703 330.041C425.782 364.863 457.563 399.744 493.424 390.128L531.517 379.909C562.436 371.62 592.096 396.845 588.864 428.698L579.4 522.108C576.597 549.835 599.01 573.602 626.852 572.416L729.325 568.039C756.636 566.877 778.866 589.78 776.893 617.039L768.472 733.048C766.885 754.845 780.963 774.721 802.042 780.479L914.922 811.278" stroke="#432F1F" stroke-miterlimit="10"/>
<path d="M1324.79 1280.88L1286.87 1161.38C1283.54 1150.87 1276.53 1141.94 1267.14 1136.19L1198.82 1094.43C1186.13 1086.68 1178 1073.25 1177.03 1058.42L1173.52 1005.09C1172.17 984.661 1157.43 967.632 1137.42 963.36L1101.42 955.691C1080.61 951.26 1065.6 933.054 1065.22 911.781L1064.76 886.232C1064.41 865.916 1050.68 848.276 1031.08 842.927L914.975 811.236" stroke="#432F1F" stroke-miterlimit="10"/>
<path d="M486.044 245.054L458.371 311.943C444.133 346.371 474.826 382.479 511.086 373.951L546.854 365.553C578.055 358.223 606.928 384.425 602.643 416.189L590.068 509.456C586.341 537.074 607.978 561.572 635.837 561.303L739.869 560.285C766.097 560.021 786.694 582.679 783.97 608.771L771.565 727.123C769.3 748.669 782.47 768.84 803.101 775.445L914.961 811.288" stroke="#432F1F" stroke-miterlimit="10"/>
<path d="M1302.18 1299.19L1269.78 1180.19C1266.9 1169.63 1260.32 1160.44 1251.25 1154.31L1182.7 1108C1170.14 1099.52 1162.6 1085.38 1162.56 1070.22L1162.43 1018.04C1162.38 997.56 1148.7 979.6 1128.97 974.107L1092.65 963.989C1072.04 958.245 1058.17 938.991 1059.25 917.625L1060.47 893.56C1061.51 872.848 1048.49 854.028 1028.74 847.7L914.971 811.249" stroke="#432F1F" stroke-miterlimit="10"/>
<path d="M509.421 227.756L478.775 294.759C463.234 328.742 492.801 366.013 529.419 358.616L562.782 351.88C594.231 345.529 622.27 372.681 616.929 404.314L601.255 497.289C596.625 524.776 617.438 549.978 645.301 550.621L748.654 553.013C774.858 553.612 794.703 576.911 791.13 602.872L774.873 721.324C771.952 742.584 784.209 763.022 804.343 770.447L914.948 811.285" stroke="#432F1F" stroke-miterlimit="10"/>
<path d="M1278.81 1316.48L1251.89 1198.29C1249.47 1187.64 1243.32 1178.22 1234.54 1171.71L1166.03 1120.88C1153.61 1111.67 1146.68 1096.8 1147.63 1081.36L1150.73 1030.51C1151.98 1010.02 1139.43 991.204 1120.01 984.496L1083.49 971.88C1063.16 964.856 1050.47 944.592 1053.02 923.219L1055.72 900.645C1058.23 879.634 1046.01 859.633 1026.15 852.31L914.942 811.255" stroke="#432F1F" stroke-miterlimit="10"/>
<path d="M533.543 211.486L495.006 288.253C480.23 317.675 505.178 351.416 537.642 345.917L579.306 338.864C610.959 333.507 638.144 361.577 631.754 393.053L612.982 485.584C607.445 512.897 627.415 538.771 655.236 540.342L755.687 545.989C782.927 547.515 802.784 572.42 798.215 599.315L778.437 715.65C774.877 736.615 786.221 757.263 805.825 765.485L914.939 811.268" stroke="#432F1F" stroke-miterlimit="10"/>
<path d="M1254.7 1332.74L1233.24 1215.62C1231.27 1204.89 1225.54 1195.22 1217.06 1188.35L1148.89 1133.05C1136.61 1123.09 1130.35 1107.52 1132.32 1091.83L1138.53 1042.45C1141.09 1022.02 1129.68 1002.39 1110.65 994.5L1074.08 979.355C1054.05 971.061 1042.6 949.861 1046.65 928.571L1050.66 907.478C1054.69 886.266 1043.34 865.119 1023.42 856.772L914.981 811.266" stroke="#432F1F" stroke-miterlimit="10"/>
<path d="M558.33 196.292L516.406 272.815C500.545 301.753 524.399 336.43 557.098 331.96L596.349 326.595C628.186 322.253 654.456 351.211 647.031 382.478L625.204 474.399C618.768 501.512 637.873 528.038 665.63 530.518L765.072 539.416C792.235 541.847 811.24 567.352 805.82 594.074L782.255 710.113C778.063 730.756 788.501 751.59 807.554 760.576L914.968 811.262" stroke="#432F1F" stroke-miterlimit="10"/>
<path d="M1229.9 1347.93L1213.84 1232.18C1212.33 1221.34 1207.01 1211.42 1198.82 1204.19L1131.25 1144.49C1119.15 1133.78 1113.57 1117.48 1116.61 1101.61L1125.75 1053.85C1129.63 1033.53 1119.41 1013.13 1100.79 1004.11L1064.3 986.404C1044.66 976.874 1034.49 954.785 1040.03 933.66L1045.18 914.007C1050.77 892.701 1040.38 870.444 1020.47 861.049L914.968 811.262" stroke="#432F1F" stroke-miterlimit="10"/>
<path d="M583.775 182.2L538.443 258.348C521.533 286.77 544.242 322.314 577.144 318.894L613.897 315.069C645.875 311.746 671.209 341.571 662.746 372.588L637.903 463.756C630.574 490.643 648.785 517.773 676.447 521.179L774.702 533.268C801.75 536.593 819.894 562.682 813.62 589.19L786.277 704.741C781.473 725.04 791.015 746.021 809.471 755.745L914.939 811.268" stroke="#432F1F" stroke-miterlimit="10"/>
<path d="M1204.46 1362.04L1193.72 1247.93C1192.7 1237.01 1187.77 1226.82 1179.85 1219.22L1113.15 1155.19C1101.22 1143.73 1096.4 1126.74 1100.55 1110.72L1112.48 1064.67C1117.7 1044.53 1108.67 1023.43 1090.52 1013.28L1054.25 992.992C1035.03 982.249 1026.2 959.345 1033.22 938.481L1039.38 920.2C1046.54 898.931 1037.2 875.601 1017.34 865.141L914.971 811.249" stroke="#432F1F" stroke-miterlimit="10"/>
<path d="M609.793 169.215L561.059 244.865C543.116 272.707 564.664 309.086 597.709 306.726L631.925 304.279C663.999 301.99 688.363 332.646 678.886 363.378L651.052 453.648C642.841 480.271 660.137 507.984 687.663 512.307L784.571 527.515C811.461 531.737 828.742 558.369 821.618 584.648L790.519 699.524C785.119 719.471 793.764 740.556 811.619 750.976L914.939 811.268" stroke="#432F1F" stroke-miterlimit="10"/>
<path d="M1178.44 1375.01L1172.92 1262.81C1172.38 1251.78 1167.87 1241.32 1160.22 1233.36L1094.64 1165.1C1082.91 1152.9 1078.89 1135.2 1084.17 1119.12L1098.73 1074.89C1105.27 1055.02 1097.49 1033.25 1079.85 1022.02L1043.93 999.148C1025.2 987.226 1017.73 963.581 1026.24 943.071L1033.27 926.078C1042.03 904.945 1033.82 880.605 1014.08 869.073L914.997 811.256" stroke="#432F1F" stroke-miterlimit="10"/>
<path d="M636.371 157.387L584.231 232.401C565.292 259.631 585.635 296.792 618.779 295.508L650.415 294.29C682.552 293.053 705.89 324.498 695.409 354.906L664.638 444.126C655.552 470.46 671.926 498.727 699.278 503.956L794.691 522.216C821.399 527.328 837.781 554.479 829.83 580.495L795.018 694.487C789.042 714.058 796.795 735.223 814.005 746.298L914.942 811.255" stroke="#432F1F" stroke-miterlimit="10"/>
<path d="M1151.87 1386.84L1151.48 1276.82C1151.44 1265.69 1147.34 1254.95 1139.95 1246.61L1075.72 1174.24C1064.21 1161.27 1061.02 1142.92 1067.49 1126.82L1084.51 1084.46C1092.37 1064.93 1085.86 1042.54 1068.75 1030.26L1033.32 1004.81C1015.13 991.748 1009.07 967.435 1019.02 947.367L1026.84 931.578C1037.18 910.717 1030.19 885.421 1010.62 872.814L914.958 811.246" stroke="#432F1F" stroke-miterlimit="10"/>
<path d="M663.421 146.736L607.87 220.974C587.972 247.56 607.073 285.438 640.283 285.249L669.315 285.087C701.473 284.906 723.767 317.107 712.291 347.151L678.648 435.187C668.71 461.196 684.117 489.977 711.266 496.12L805.015 517.345C831.513 523.34 846.962 550.986 838.206 576.704L799.721 689.615C793.185 708.801 800.057 730.006 816.599 741.717L914.942 811.255" stroke="#432F1F" stroke-miterlimit="10"/>
<path d="M1124.8 1397.5L1129.42 1289.92C1129.9 1278.69 1126.23 1267.66 1119.09 1258.95L1056.45 1182.59C1045.19 1168.85 1042.89 1149.85 1050.55 1133.84L1069.89 1093.43C1079.05 1074.29 1073.84 1051.36 1057.31 1038.06L1022.49 1010.05C1004.88 995.88 1000.27 970.96 1011.62 951.421L1020.17 936.724C1032.08 916.243 1026.38 890.062 1007.05 876.388L914.952 811.272" stroke="#432F1F" stroke-miterlimit="10"/>
<path d="M690.914 137.267L631.961 210.594C611.143 236.491 628.958 275.047 662.175 275.964L688.577 276.699C720.724 277.593 741.931 310.497 729.469 340.153L693.003 426.866C682.22 452.524 696.645 481.774 723.562 488.835L815.518 512.936C841.765 519.817 856.291 547.92 846.712 573.307L804.614 684.96C797.535 703.752 803.524 724.955 819.399 737.247L914.939 811.268" stroke="#432F1F" stroke-miterlimit="10"/>
<path d="M1097.31 1406.97L1106.79 1302.08C1107.81 1290.72 1104.56 1279.41 1097.69 1270.33L1036.86 1190.11C1025.86 1175.62 1024.51 1156 1033.38 1140.14L1054.89 1101.71C1065.34 1083.04 1061.46 1059.63 1045.54 1045.34L1011.47 1014.76C994.496 999.521 991.348 974.107 1004.09 955.174L1013.31 941.472C1026.75 921.499 1022.43 894.513 1003.38 879.77L914.964 811.275" stroke="#432F1F" stroke-miterlimit="10"/>
<path d="M718.804 128.995L656.468 201.291C634.749 226.478 651.259 265.623 684.451 267.666L708.217 269.118C740.31 271.088 760.396 304.672 746.964 333.874L707.74 419.131C696.122 444.4 709.552 474.115 736.202 482.071L826.199 508.948C852.169 516.707 865.739 545.231 855.367 570.281L809.725 680.473C802.109 698.845 807.247 720.027 822.42 732.877L914.955 811.259" stroke="#432F1F" stroke-miterlimit="10"/>
<path d="M1069.42 1415.23L1083.61 1313.27C1085.2 1301.82 1082.41 1290.18 1075.76 1280.72L1016.95 1196.79C1006.26 1181.56 1005.89 1161.36 1015.99 1145.73L1039.54 1109.29C1051.24 1091.17 1048.71 1067.33 1033.43 1052.09L1000.23 1018.96C983.922 1002.7 982.257 976.851 996.339 958.623L1006.24 945.806C1021.19 926.444 1018.26 898.756 999.599 882.955L914.968 811.262" stroke="#432F1F" stroke-miterlimit="10"/>
<path d="M747.023 121.972L681.312 193.101C658.748 217.523 673.906 257.231 707.005 260.396L728.146 262.414C760.127 265.473 779.076 299.692 764.695 328.419L722.802 412.09C710.356 436.944 722.78 467.066 749.132 475.923L837.05 505.46C862.717 514.092 875.313 543.004 864.145 567.675L815.019 676.229C806.899 694.163 811.18 715.295 825.633 728.669L914.951 811.272" stroke="#432F1F" stroke-miterlimit="10"/>
<path d="M1041.2 1422.27L1059.92 1323.48C1062.11 1311.94 1059.77 1299.99 1053.38 1290.11L996.782 1202.62C986.44 1186.63 987.081 1165.89 998.405 1150.58L1023.86 1116.16C1036.8 1098.67 1035.61 1074.47 1021.03 1058.31L988.822 1022.65C973.25 1005.42 973.073 979.223 988.436 961.781L999.019 949.756C1015.42 931.127 1013.96 902.81 995.74 885.968L914.968 811.262" stroke="#432F1F" stroke-miterlimit="10"/>
<path d="M775.522 116.17L706.461 185.988C683.085 209.625 696.87 249.821 729.846 254.113L748.383 256.525C780.222 260.678 797.98 295.476 782.656 323.702L738.155 405.666C724.901 430.082 736.298 460.579 762.303 470.323L848.003 502.415C873.332 511.895 884.932 541.175 873.004 565.436L820.485 672.169C811.874 689.667 815.312 710.698 829.029 724.552L914.942 811.255" stroke="#432F1F" stroke-miterlimit="10"/>
<path d="M1012.71 1428.06L1035.77 1332.66C1038.58 1321.02 1036.72 1308.75 1030.59 1298.48L976.377 1207.59C966.401 1190.86 968.111 1169.63 980.655 1154.72L1007.9 1122.32C1022.03 1105.51 1022.22 1081.02 1008.35 1063.99L977.255 1025.82C962.446 1007.64 963.785 981.21 980.344 964.612L991.653 953.279C1009.43 935.476 1009.49 906.653 991.784 888.775L914.962 811.233" stroke="#432F1F" stroke-miterlimit="10"/>
<path d="M804.253 111.618L731.86 180.004C707.709 202.826 720.098 243.436 752.89 248.88L768.85 251.527C800.493 256.774 817.041 292.117 800.817 319.784L753.81 399.917C739.758 423.856 750.111 454.695 775.758 465.31L859.119 499.842C884.069 510.173 894.686 539.77 881.975 563.6L826.163 668.346C817.081 685.386 819.68 706.302 832.659 720.594L914.958 811.246" stroke="#432F1F" stroke-miterlimit="10"/>
<path d="M983.989 1432.61L1011.21 1340.82C1014.68 1329.12 1013.33 1316.52 1007.45 1305.82L955.802 1211.71C946.213 1194.25 949.034 1172.59 962.774 1158.16L991.719 1127.76C1007 1111.7 1008.58 1087 995.453 1069.14L965.587 1028.5C951.579 1009.44 954.415 982.829 972.137 967.15L984.232 956.442C1003.33 939.557 1004.92 910.317 987.795 891.448L914.997 811.256" stroke="#432F1F" stroke-miterlimit="10"/>
<path d="M833.143 108.324L757.457 175.137C732.566 197.112 743.545 238.089 776.087 244.668L789.516 247.383C820.917 253.739 836.228 289.579 819.101 316.645L769.657 394.84C754.84 418.285 764.121 449.416 789.368 460.905L870.276 497.735C894.82 508.91 904.423 538.788 890.963 562.169L831.948 664.745C822.411 681.318 824.194 702.084 836.428 716.784L914.946 811.242" stroke="#432F1F" stroke-miterlimit="10"/>
<path d="M955.086 1435.9L986.23 1347.92C990.389 1336.16 989.575 1323.22 983.957 1312.07L935.012 1214.92C925.85 1196.75 929.809 1174.7 944.724 1160.84L975.273 1132.44C991.661 1117.21 994.619 1092.35 982.271 1073.7L953.75 1030.62C940.575 1010.72 944.907 984.038 963.719 969.342L976.681 959.211C997.001 943.318 1000.18 913.784 983.688 893.939L914.968 811.262" stroke="#432F1F" stroke-miterlimit="10"/>
<path d="M862.148 106.304L783.2 171.428C757.617 192.527 767.152 233.794 799.4 241.523L810.351 244.154C841.458 251.605 855.49 287.89 837.506 314.34L785.738 390.49C770.154 413.397 778.369 444.795 803.177 457.147L881.528 496.151C905.631 508.147 914.21 538.289 900.027 561.172L837.936 661.418C827.96 677.515 828.95 698.096 840.404 713.181L914.951 811.272" stroke="#432F1F" stroke-miterlimit="10"/>
<path d="M926.078 1437.94L960.934 1353.93C965.818 1342.14 965.57 1328.84 960.235 1317.26L914.169 1217.25C905.472 1198.37 910.595 1176 926.644 1162.8L958.733 1136.39C976.17 1122.03 980.518 1097.09 968.966 1077.69L941.902 1032.21C929.602 1011.52 935.422 984.852 955.229 971.183L969.14 961.583C990.607 946.77 995.356 917.036 979.572 896.261L914.981 811.266" stroke="#432F1F" stroke-miterlimit="10"/>
<path d="M891.232 105.534L809.05 168.811C782.81 189.015 790.89 230.501 822.789 239.38L831.35 241.756C862.119 250.318 874.859 286.989 856.029 312.784L802.022 386.773C785.703 409.125 792.837 440.744 817.155 453.945L892.848 494.985C916.484 507.796 924.014 538.14 909.121 560.529L844.049 658.292C833.652 673.902 833.852 694.286 844.543 709.691L914.946 811.242" stroke="#432F1F" stroke-miterlimit="10"/>
<path d="M897.01 1438.7L935.324 1358.85C940.981 1347.06 941.321 1333.42 936.265 1321.37L893.193 1218.68C884.995 1199.13 891.308 1176.5 908.448 1164.02L942.007 1139.59C960.435 1126.17 966.165 1101.23 955.453 1081.11L929.951 1033.26C918.549 1011.85 925.84 985.254 946.574 972.662L961.535 963.578C984.05 949.902 990.4 920.073 975.387 898.427L914.964 811.275" stroke="#432F1F" stroke-miterlimit="10"/>
<path d="M920.305 106.045L834.945 167.366C808.096 186.648 814.711 228.293 846.193 238.317L852.453 240.312C882.827 249.984 894.239 286.975 874.598 312.084L818.458 383.83C801.424 405.603 807.444 437.408 831.267 451.429L904.2 494.367C927.331 507.981 933.819 538.502 918.214 560.355L850.312 655.481C839.522 670.6 838.943 690.747 848.849 706.453L914.948 811.285" stroke="#432F1F" stroke-miterlimit="10"/>
<path d="M867.937 1438.19L909.476 1362.64C915.939 1350.89 916.912 1336.9 912.149 1324.36L872.209 1219.22C864.534 1199 872.059 1176.17 890.257 1164.49L925.22 1142.04C944.586 1129.6 951.694 1104.73 941.825 1083.94L918.008 1033.76C907.521 1011.67 916.272 985.245 937.854 973.764L953.974 965.198C977.453 952.72 985.372 922.91 971.192 900.424L914.977 811.279" stroke="#432F1F" stroke-miterlimit="10"/>
<path d="M949.33 107.815L860.831 167.038C833.419 185.381 838.538 227.095 869.573 238.27L873.629 239.73C903.558 250.497 913.612 287.761 893.188 312.134L835.006 381.552C817.264 402.721 822.185 434.659 845.47 449.503L915.561 494.179C938.161 508.591 943.579 539.239 927.31 560.527L856.706 652.858C845.525 667.471 844.204 687.35 853.319 703.328L914.958 811.246" stroke="#432F1F" stroke-miterlimit="10"/>
<path d="M838.899 1436.41L883.38 1365.3C890.679 1353.62 892.341 1339.28 887.891 1326.25L851.182 1218.84C844.061 1197.99 852.812 1175.02 872.009 1164.2L908.35 1143.72C928.572 1132.31 937.052 1107.57 928.064 1086.17L906.033 1033.71C896.497 1011.01 906.665 984.812 929.028 974.493L946.413 966.459C970.749 955.218 980.247 925.542 966.945 902.256L914.977 811.278" stroke="#432F1F" stroke-miterlimit="10"/>
<path d="M978.25 110.854L886.656 167.867C858.729 185.244 862.353 226.971 892.851 239.273L894.809 240.06C924.221 251.932 932.919 289.412 911.734 313.015L851.616 380.022C833.201 400.556 837.008 432.582 859.719 448.225L926.898 494.496C948.921 509.665 953.286 540.432 936.348 561.126L863.171 650.53C851.631 664.632 849.557 684.227 857.895 700.424L914.933 811.239" stroke="#432F1F" stroke-miterlimit="10"/>
<path d="M809.98 1433.37L857.137 1366.8C865.314 1355.25 867.691 1340.56 863.57 1327.02L830.203 1217.55C823.662 1196.09 833.647 1173.05 853.782 1163.16L891.442 1144.66C912.468 1134.33 922.288 1109.79 914.203 1087.8L894.071 1033.1C885.502 1009.83 897.063 983.952 920.108 974.796L938.872 967.339C963.985 957.37 975.023 927.927 962.652 903.895L914.962 811.233" stroke="#432F1F" stroke-miterlimit="10"/>
<path d="M1007.01 115.163L912.374 169.813C883.991 186.212 886.102 227.866 916.009 241.293C944.856 254.243 952.16 291.875 930.26 314.692L868.324 379.209C849.247 399.068 851.93 431.166 874.029 447.598L938.226 495.308C959.648 511.227 962.934 542.05 945.355 562.145L869.764 648.498C857.88 662.08 855.086 681.372 862.641 697.76L914.939 811.268" stroke="#432F1F" stroke-miterlimit="10"/>
<path d="M781.217 1429.08L830.778 1367.14C839.875 1355.77 843.017 1340.74 839.232 1326.68L809.283 1215.37C803.354 1193.33 814.582 1170.29 835.601 1161.38L874.551 1144.87C896.302 1135.64 907.457 1111.38 900.274 1088.87L882.146 1031.99C874.56 1008.2 887.463 982.719 911.142 974.755L931.39 967.944C957.164 959.271 969.731 930.155 958.351 905.464L914.955 811.259" stroke="#432F1F" stroke-miterlimit="10"/>
<path d="M1035.56 120.714L921.804 181.525C899.767 193.312 900.235 225.065 922.609 236.197L937.184 243.445C965.407 257.485 971.309 295.196 948.721 317.181L885.067 379.138C865.358 398.317 866.908 430.415 888.374 447.616L949.546 496.615C970.34 513.277 972.546 544.114 954.34 563.558L876.492 646.738C864.281 659.79 860.787 678.756 867.553 695.305L914.97 811.304" stroke="#432F1F" stroke-miterlimit="10"/>
<path d="M752.666 1423.53L804.349 1366.3C814.402 1355.17 818.362 1339.82 814.942 1325.22L788.496 1212.29C783.201 1189.68 795.68 1166.72 817.513 1158.84L857.736 1144.33C880.148 1136.24 892.595 1112.32 886.355 1089.32L870.34 1030.34C863.749 1006.07 877.981 981.048 902.189 974.304L924.011 968.218C950.355 960.872 964.409 932.182 954.057 906.854L914.981 811.266" stroke="#432F1F" stroke-miterlimit="10"/>
<path d="M1063.83 127.502L947.032 185.094C924.707 196.1 924.02 227.681 945.852 239.649L958.28 246.46C985.819 261.559 990.293 299.289 967.053 320.408L901.783 379.736C881.478 398.202 881.89 430.272 902.663 448.199L960.742 498.33C980.865 515.696 982 546.509 963.193 565.308L883.246 645.191C870.723 657.704 866.549 676.322 872.523 692.991L914.942 811.255" stroke="#432F1F" stroke-miterlimit="10"/>
<path d="M724.392 1416.74L777.894 1364.27C788.926 1353.46 793.746 1337.79 790.719 1322.64L767.828 1208.3C763.195 1185.18 776.915 1162.32 799.493 1155.53L840.941 1143.04C863.938 1136.13 877.663 1112.58 872.366 1089.16L858.566 1028.15C852.994 1003.48 868.483 978.973 893.169 973.434L916.666 968.156C943.496 962.142 958.985 933.974 949.706 908.091L914.981 811.266" stroke="#432F1F" stroke-miterlimit="10"/>
<path d="M1091.79 135.519L972.045 189.78C949.474 200.001 947.636 231.344 968.858 244.143L979.263 250.411C1006.05 266.553 1009.08 304.226 985.236 324.451L918.458 381.11C897.563 398.839 896.837 430.824 916.902 449.487L971.865 500.579C991.29 518.642 991.339 549.385 971.942 567.501L890.071 643.995C877.249 655.973 872.415 674.22 877.608 690.97L914.922 811.278" stroke="#432F1F" stroke-miterlimit="10"/>
<path d="M696.433 1408.72L751.469 1361.04C763.504 1350.61 769.254 1334.66 766.629 1318.95L747.356 1203.42C743.411 1179.79 758.36 1157.14 781.621 1151.46L824.271 1141.04C847.783 1135.29 862.749 1112.22 858.412 1088.41L846.937 1025.42C842.371 1000.4 859.115 976.463 884.179 972.143L909.414 967.801C936.632 963.12 953.518 935.561 945.342 909.173L914.968 811.262" stroke="#432F1F" stroke-miterlimit="10"/>
<path d="M1119.37 144.746L996.783 195.538C974.009 204.973 971.037 236.012 991.589 249.612L1000.12 255.253C1026.08 272.43 1027.68 309.955 1003.27 329.268L935.094 383.192C913.646 400.151 911.776 432.023 931.102 451.386L982.921 503.279C1001.62 522.003 1000.57 552.646 980.636 570.051L896.996 643.047C883.908 654.47 878.417 672.334 882.836 689.139L914.955 811.259" stroke="#432F1F" stroke-miterlimit="10"/>
<path d="M668.853 1399.49L725.136 1356.6C738.205 1346.63 744.924 1330.42 742.742 1314.13L727.109 1197.65C723.88 1173.57 740.032 1151.17 763.912 1146.63L807.74 1138.31C831.704 1133.76 847.871 1111.2 844.508 1087.06L835.458 1022.18C831.927 996.855 849.842 973.55 875.224 970.462L902.277 967.173C929.803 963.817 948.036 936.951 940.98 910.145L914.977 811.278" stroke="#432F1F" stroke-miterlimit="10"/>
<path d="M1146.52 155.169L1021.21 202.372C998.273 211.006 994.156 241.682 1014 256.059L1020.8 260.989C1045.88 279.157 1046.02 316.487 1021.08 334.855L951.605 386.001C929.632 402.183 926.62 433.888 945.161 453.91L993.825 506.449C1011.77 525.814 1009.62 556.313 989.158 572.984L903.938 642.394C890.585 653.262 884.47 670.724 888.124 687.545L914.945 811.242" stroke="#432F1F" stroke-miterlimit="10"/>
<path d="M641.705 1389.07L698.949 1350.93C713.054 1341.54 720.815 1325.1 719.093 1308.23L707.139 1191C704.645 1166.49 721.999 1144.4 746.402 1141.05L791.369 1134.87C815.701 1131.53 833.053 1109.55 830.655 1085.1L824.118 1018.42C821.611 992.834 840.666 970.221 866.303 968.348L895.209 966.232C922.946 964.204 942.467 938.097 936.573 910.925L914.968 811.262" stroke="#432F1F" stroke-miterlimit="10"/>
<path d="M1173.19 166.762L1045.26 210.255C1022.21 218.097 1016.97 248.333 1036.03 263.468L1041.26 267.617C1065.38 286.759 1064.06 323.793 1038.65 341.18L967.993 389.522C945.52 404.894 941.379 436.378 959.097 457.05L1004.59 510.08C1021.74 530.059 1018.5 560.365 997.526 576.289L910.907 642.051C897.314 652.372 890.598 669.397 893.48 686.218L914.926 811.265" stroke="#432F1F" stroke-miterlimit="10"/>
<path d="M615.039 1377.46L672.955 1344.04C688.1 1335.29 696.945 1318.67 695.725 1301.22L687.468 1183.49C685.716 1158.59 704.267 1136.88 729.135 1134.73L775.201 1130.73C799.846 1128.59 818.326 1107.25 816.907 1082.55L812.981 1014.17C811.506 988.386 831.652 966.494 857.476 965.831L888.279 965.038C916.145 964.329 936.892 939.061 932.183 911.586L914.977 811.279" stroke="#432F1F" stroke-miterlimit="10"/>
<path d="M1199.33 179.511L1068.91 219.173C1045.78 226.208 1039.43 255.94 1057.66 271.805L1061.49 275.138C1084.59 295.221 1081.81 331.877 1055.97 348.266L984.218 393.759C961.277 408.301 955.991 439.52 972.88 460.812L1015.21 514.167C1031.53 534.741 1027.2 564.796 1005.76 579.945L917.914 641.981C904.101 651.732 896.797 668.323 898.928 685.109L914.942 811.255" stroke="#432F1F" stroke-miterlimit="10"/>
<path d="M588.901 1364.72L647.226 1335.94C663.411 1327.96 673.388 1311.19 672.695 1293.16L668.119 1175.14C667.139 1149.88 686.842 1128.62 712.107 1127.67L759.232 1125.9C784.119 1124.97 803.688 1104.31 803.25 1079.4L802.036 1009.4C801.583 983.463 822.781 962.335 848.711 962.875L881.424 963.561C909.346 964.137 931.259 939.776 927.745 912.068L914.945 811.242" stroke="#432F1F" stroke-miterlimit="10"/>
<path d="M1224.89 193.39L1092.1 229.116C1068.94 235.341 1061.5 264.505 1078.85 281.074L1081.45 283.551C1103.43 304.537 1099.21 340.738 1072.99 356.099L1000.25 398.717C976.873 412.411 970.453 443.326 986.459 465.183L1025.63 518.714C1041.1 539.847 1035.69 569.624 1013.79 583.976L924.919 642.229C910.895 651.426 903.026 667.548 904.405 684.256L914.929 811.252" stroke="#432F1F" stroke-miterlimit="10"/>
<path d="M563.341 1350.84L621.826 1326.62C639.038 1319.49 650.211 1302.64 650.065 1284.01L649.162 1165.95C648.962 1140.36 669.805 1119.58 695.402 1119.86L743.544 1120.39C768.604 1120.66 789.222 1100.72 789.777 1075.66L791.356 1004.16C791.927 978.113 814.121 957.805 840.118 959.536L874.745 961.84C902.643 963.694 925.665 940.293 923.355 912.425L914.971 811.249" stroke="#432F1F" stroke-miterlimit="10"/>
<path d="M1249.82 208.371L1114.8 240.047C1091.65 245.473 1083.15 273.994 1099.56 291.207L1101.11 292.839C1121.92 314.669 1116.26 350.319 1089.72 364.642L1016.08 404.368C992.302 417.194 984.766 447.741 999.846 470.165L1035.88 523.712C1050.46 545.366 1043.98 574.815 1021.65 588.348L931.941 642.771C917.727 651.392 909.305 667.048 909.964 683.66L914.939 811.268" stroke="#432F1F" stroke-miterlimit="10"/>
<path d="M538.421 1335.86L596.802 1316.1C614.998 1309.94 627.42 1293.07 627.86 1273.85L630.614 1155.95C631.225 1130.07 653.174 1109.84 679.01 1111.35L728.108 1114.23C753.278 1115.7 774.89 1096.54 776.439 1071.37L780.889 998.482C782.484 972.378 805.612 952.914 831.612 955.821L868.154 959.894C895.966 962.996 920.013 940.616 918.927 912.661L914.968 811.262" stroke="#432F1F" stroke-miterlimit="10"/>
<path d="M1274.07 224.425L1136.94 251.946C1113.85 256.586 1104.31 284.388 1119.72 302.215L1120.4 303.007C1139.95 325.648 1132.87 360.639 1106.06 373.909L1031.62 410.713C1007.47 422.652 998.812 452.789 1012.95 475.721L1045.89 529.129C1059.55 551.282 1052 580.347 1029.29 593.058L938.927 643.606C924.534 651.655 915.593 666.827 915.513 683.31L914.922 811.278" stroke="#432F1F" stroke-miterlimit="10"/>
<path d="M514.16 1319.82L572.209 1304.39C591.361 1299.3 605.06 1282.45 606.134 1262.67L612.513 1145.16C613.924 1119.02 636.954 1099.41 662.982 1102.16L712.982 1107.45C738.202 1110.12 760.775 1091.75 763.296 1066.51L770.712 992.344C773.32 966.222 797.342 947.646 823.284 951.697L861.7 957.695C889.352 962.011 914.368 940.705 914.493 912.716L914.968 811.262" stroke="#432F1F" stroke-miterlimit="10"/>
<path d="M1297.59 241.515L1158.5 264.767C1135.52 268.607 1124.99 295.631 1139.31 314.013C1157.54 337.389 1149.06 371.661 1122.03 383.824L1046.87 417.687C1022.39 428.722 1012.63 458.397 1025.8 481.801L1055.69 534.93C1068.4 557.534 1059.8 586.18 1036.72 598.034L945.901 644.688C931.36 652.158 921.903 666.833 921.117 683.168L914.936 811.226" stroke="#432F1F" stroke-miterlimit="10"/>
<path d="M490.638 1302.71L548.144 1291.48C568.198 1287.56 583.22 1270.82 584.947 1250.46L594.891 1133.56C597.134 1107.2 621.205 1088.24 647.358 1092.22L698.203 1099.98C723.414 1103.82 746.903 1086.3 750.399 1061.04L760.831 985.719C764.455 959.62 789.306 941.971 815.138 947.153L855.382 955.243C882.811 960.756 908.718 940.558 910.075 912.609L914.971 811.249" stroke="#432F1F" stroke-miterlimit="10"/>
<path d="M1320.36 259.618L1176.81 278.87C1155.18 281.774 1144.3 306.551 1156.81 324.433L1157.84 325.897C1174.65 349.945 1164.8 383.378 1137.63 394.455L1061.84 425.372C1037.05 435.482 1026.21 464.647 1038.37 488.497L1065.25 541.207C1076.99 564.241 1067.33 592.41 1043.93 603.391L952.85 646.122C938.16 653.014 928.22 667.172 926.735 683.334L914.945 811.242" stroke="#432F1F" stroke-miterlimit="10"/>
<path d="M467.88 1284.61L524.662 1277.43C545.549 1274.78 561.929 1258.23 564.355 1237.32L577.806 1121.25C580.887 1094.7 605.959 1076.44 632.165 1081.66L683.77 1091.94C708.916 1096.95 733.261 1080.31 737.734 1055.06L751.267 978.737C755.879 952.709 781.53 935.993 807.198 942.305L849.22 952.625C876.367 959.292 903.099 940.241 905.668 912.409L914.983 811.308" stroke="#432F1F" stroke-miterlimit="10"/>
<path d="M445.926 1265.53L501.791 1262.22C523.428 1260.95 541.205 1244.65 544.343 1223.2L561.219 1108.16C565.141 1081.46 591.187 1063.94 617.386 1070.38L669.669 1083.23C694.689 1089.38 719.85 1073.67 725.29 1048.47L741.973 971.261C747.577 945.347 773.962 929.601 799.424 936.99L843.144 949.685C869.961 957.478 897.44 939.608 901.207 911.946L914.933 811.239" stroke="#432F1F" stroke-miterlimit="10"/>
<path d="M424.841 1245.51L479.637 1245.94C501.936 1246.12 521.121 1230.18 525.018 1208.22L545.252 1094.41C550.02 1067.59 577.014 1050.86 603.134 1058.52L656.007 1074.02C680.849 1081.3 706.781 1066.52 713.187 1041.43L733.07 963.461C739.642 937.696 766.729 922.939 791.93 931.405L837.267 946.619C863.701 955.483 891.858 938.845 896.821 911.406L914.951 811.272" stroke="#432F1F" stroke-miterlimit="10"/>
<path d="M404.636 1224.59L458.242 1228.58C481.114 1230.28 501.716 1214.78 506.404 1192.33L529.901 1079.95C535.518 1053.06 563.408 1037.16 589.418 1046.01L642.798 1064.19C667.415 1072.57 694.065 1058.78 701.413 1033.83L724.548 955.267C732.078 929.69 759.805 915.946 784.714 925.452L831.55 943.319C857.548 953.241 886.303 937.826 892.455 910.692L914.974 811.291" stroke="#432F1F" stroke-miterlimit="10"/>
<path d="M385.364 1202.81L437.648 1210.19C460.975 1213.49 482.995 1198.52 488.513 1175.6L515.171 1064.83C521.656 1037.89 550.391 1022.86 576.206 1032.9L629.987 1053.81C654.34 1063.28 681.653 1050.46 689.933 1025.7L716.351 946.689C724.828 921.339 753.149 908.625 777.717 919.144L825.963 939.792C851.485 950.718 880.772 936.565 888.086 909.783L914.964 811.275" stroke="#432F1F" stroke-miterlimit="10"/>
<path d="M367.057 1180.21L417.921 1190.83C441.596 1195.77 465.035 1181.43 471.385 1158.09L501.084 1049.11C508.427 1022.17 537.985 1008.03 563.557 1019.23L617.632 1042.92C641.659 1053.45 669.595 1041.65 678.801 1017.09L708.547 937.775C717.949 912.686 746.815 901.03 771.01 912.527L820.525 936.069C845.526 947.961 875.27 935.09 883.716 908.723L914.939 811.268" stroke="#432F1F" stroke-miterlimit="10"/>
<path d="M349.763 1156.82L399.139 1170.52C423.037 1177.15 447.876 1163.51 455.103 1139.79L487.729 1032.77C495.935 1005.85 526.264 992.655 551.542 1005.01L605.802 1031.51C629.456 1043.07 657.974 1032.3 668.091 1007.99L701.176 928.536C711.492 903.747 740.848 893.147 764.632 905.611L815.287 932.166C839.722 944.984 869.868 933.394 879.429 907.505L914.964 811.275" stroke="#432F1F" stroke-miterlimit="10"/>
<path d="M333.504 1132.72L381.309 1149.34C405.312 1157.69 431.525 1144.85 439.661 1120.78L475.09 1015.87C484.162 989.025 515.212 976.794 540.148 990.27L594.473 1019.62C617.735 1032.18 646.756 1022.47 657.777 998.448L694.214 919.005C705.433 894.555 735.238 885.015 758.563 898.419L810.207 928.084C834.061 941.782 864.509 931.489 875.158 906.126L914.961 811.288" stroke="#432F1F" stroke-miterlimit="10"/>
<path d="M318.311 1107.93L364.5 1127.34C388.484 1137.41 416.04 1125.48 425.091 1101.09L463.183 998.458C473.115 971.701 504.864 960.472 529.408 975.045L583.682 1007.27C606.487 1020.81 635.995 1012.17 647.901 988.454L687.704 909.181C699.794 885.089 729.998 876.636 752.848 890.935L805.335 923.796C828.563 938.334 859.271 929.34 870.969 904.548L914.994 811.269" stroke="#432F1F" stroke-miterlimit="10"/>
<path d="M304.207 1082.48L348.734 1104.54C372.581 1116.35 401.425 1105.4 411.419 1080.73L452.027 980.511C462.824 953.876 495.205 943.686 519.311 959.33L573.407 994.431C595.737 1008.92 625.66 1001.36 638.437 978.005L681.59 899.063C694.541 875.367 725.105 867.991 747.429 883.171L800.598 919.308C823.169 934.651 854.073 926.938 866.785 902.791L914.971 811.249" stroke="#432F1F" stroke-miterlimit="10"/>
<path d="M291.235 1056.47L334.05 1081.04C357.628 1094.59 387.737 1084.68 398.685 1059.8L441.677 962.131C453.325 935.669 486.314 926.512 509.934 943.199L563.722 981.201C585.531 996.602 615.837 990.138 629.449 967.171L676.981 886.986C690.217 864.651 719.855 858.616 740.769 874.011L796.075 914.699C817.96 930.797 848.987 924.374 862.678 900.904L914.981 811.266" stroke="#432F1F" stroke-miterlimit="10"/>
<path d="M279.409 1029.89L320.497 1056.89C343.688 1072.14 374.997 1063.37 386.915 1038.32L432.121 943.315C444.63 917.042 478.157 908.969 501.242 926.673L554.596 967.583C575.847 983.884 606.497 978.506 620.936 955.955L671.845 876.467C685.876 854.566 715.755 849.589 736.115 865.762L791.709 909.911C812.89 926.731 843.973 921.594 858.603 898.845L914.948 811.285" stroke="#432F1F" stroke-miterlimit="10"/>
<path d="M268.746 1002.83L308.067 1032.15C330.757 1049.06 363.201 1041.52 376.092 1016.35L423.375 924.108C436.721 898.059 470.77 891.079 493.285 909.776L546.069 953.586C566.732 970.738 597.665 966.472 612.922 944.374L667.195 865.733C681.984 844.297 712.079 840.373 731.863 857.303L787.583 904.952C808.043 922.45 839.105 918.577 854.648 896.598L914.977 811.279" stroke="#432F1F" stroke-miterlimit="10"/>
<path d="M259.281 975.326L296.821 1006.86C318.894 1025.4 352.404 1019.14 366.297 993.891L415.475 904.52C429.662 878.738 464.158 872.872 486.074 892.514L538.153 939.215C558.207 957.198 589.367 954.042 605.412 932.404L662.988 854.786C678.529 833.842 708.781 830.982 727.971 848.636L783.611 899.827C803.323 917.953 834.322 915.348 850.725 894.179L914.948 811.285" stroke="#432F1F" stroke-miterlimit="10"/>
<path d="M251.02 947.451L286.76 981.114C308.121 1001.23 342.624 996.317 357.517 971.042L408.429 884.636C423.449 859.146 458.359 854.413 479.626 874.986L530.854 924.553C550.254 943.327 581.625 941.292 598.431 920.162L659.268 843.721C675.526 823.3 705.913 821.484 724.475 839.827L779.868 894.57C798.813 913.292 829.7 911.928 846.914 891.597L914.935 811.281" stroke="#432F1F" stroke-miterlimit="10"/>
<path d="M243.984 919.228L277.891 954.941C298.43 976.576 333.867 973.075 349.763 947.82L402.252 864.446C418.098 839.275 453.377 835.69 473.962 857.158L524.21 909.555C542.951 929.092 574.451 928.169 592.013 907.572L656.066 832.477C673.024 812.589 703.499 811.833 721.426 830.848L776.364 889.143C794.54 908.418 825.238 908.274 843.223 888.827L914.955 811.259" stroke="#432F1F" stroke-miterlimit="10"/>
<path d="M238.183 890.728L270.231 928.429C289.866 951.534 326.146 949.474 343.044 924.294L396.936 844.032C413.598 819.217 449.188 816.793 469.072 839.122L518.208 894.329C536.244 914.589 567.859 914.787 586.152 894.76L653.341 821.154C670.975 801.834 701.488 802.123 718.761 821.778L773.066 883.618C790.44 903.411 820.914 904.464 839.622 885.928L914.964 811.275" stroke="#432F1F" stroke-miterlimit="10"/>
<path d="M233.645 862L263.826 901.618C282.483 926.104 319.507 925.542 337.416 900.509L392.533 823.406C410.004 798.973 445.872 797.728 464.998 820.877L512.884 878.843C530.206 899.809 561.869 901.111 580.865 881.659L651.12 809.703C669.414 790.96 699.935 792.302 716.518 812.573L770 877.949C786.583 898.22 816.756 900.449 836.137 882.854L914.977 811.279" stroke="#432F1F" stroke-miterlimit="10"/>
<path d="M230.351 833.109L258.628 874.578C276.214 900.38 313.918 901.353 332.83 876.492L389.006 802.6C407.263 778.586 443.357 778.506 461.716 802.457L508.214 863.131C524.793 884.755 556.473 887.18 576.148 868.338L649.385 798.189C668.316 780.059 698.807 782.442 714.684 803.284L767.16 872.161C782.923 892.861 812.772 896.246 832.778 879.62L914.994 811.269" stroke="#432F1F" stroke-miterlimit="10"/>
<path d="M228.319 804.099L254.649 847.367C271.101 874.412 309.407 876.956 329.292 852.327L386.339 781.68C405.375 758.109 441.659 759.227 459.196 783.924L504.171 847.242C519.985 869.503 551.644 873.042 571.968 854.815L648.095 786.615C667.63 769.116 698.051 772.53 713.214 793.926L764.486 866.265C779.44 887.356 808.888 891.877 829.472 876.234L914.938 811.268" stroke="#432F1F" stroke-miterlimit="10"/>
<path d="M227.563 775.018L251.931 820.039C267.202 848.245 305.993 852.382 326.866 828.033L384.622 760.669C404.429 737.567 440.833 739.891 457.555 765.309L500.888 831.198C515.909 854.048 547.507 858.689 568.467 841.13L647.377 775.015C667.5 758.157 697.811 762.605 712.239 784.522L762.114 860.271C776.24 881.72 805.256 887.341 826.374 872.697L914.964 811.275" stroke="#432F1F" stroke-miterlimit="10"/>
<path d="M228.075 745.944L250.445 792.653C264.462 821.932 303.674 827.688 325.523 803.669L383.805 739.595C404.361 716.998 440.858 720.521 456.721 746.62L498.277 815.016C512.5 838.425 543.982 844.168 565.549 827.282L647.146 763.407C667.821 747.221 697.984 752.68 711.674 775.089L759.978 854.174C773.27 875.952 801.824 882.623 823.397 869.013L914.964 811.275" stroke="#432F1F" stroke-miterlimit="10"/>
<path d="M229.845 716.918L250.161 765.259C262.89 795.532 302.425 802.921 325.231 779.297L383.872 718.524C405.17 696.456 441.705 701.177 456.686 727.938L496.338 798.752C509.739 822.7 541.07 829.521 563.224 813.332L647.38 751.813C668.59 736.31 698.578 742.784 711.509 765.654L758.069 848C770.541 870.056 798.566 877.773 820.565 865.202L914.948 811.285" stroke="#432F1F" stroke-miterlimit="10"/>
<path d="M232.885 687.997L251.12 737.921C262.513 769.107 302.295 778.151 326.039 754.943L384.861 697.464C406.864 675.959 443.408 681.883 457.496 709.248L495.128 782.393C507.705 806.839 538.844 814.74 561.552 799.266L648.16 740.241C669.886 725.442 699.65 732.907 711.817 756.207L756.446 841.737C768.079 864.038 795.561 872.755 817.923 861.248L914.974 811.291" stroke="#432F1F" stroke-miterlimit="10"/>
<path d="M237.184 659.22L253.297 710.675C263.32 742.696 303.255 753.382 327.92 730.656L386.758 676.469C409.473 655.554 445.957 662.679 459.117 690.623L494.608 765.984C506.333 790.878 537.237 799.863 560.482 785.113L649.403 728.696C671.602 714.605 701.126 723.068 712.506 746.779L755.026 835.39C765.827 857.91 792.703 867.597 815.391 857.144L914.951 811.272" stroke="#432F1F" stroke-miterlimit="10"/>
<path d="M242.732 630.681L256.668 683.611C265.29 716.375 305.295 728.71 330.87 706.504L389.536 655.585C412.93 635.281 449.323 643.623 461.541 672.089L494.79 749.584C505.654 774.91 536.29 784.942 560.038 770.948L651.142 717.257C673.808 703.898 703.044 713.334 713.621 737.41L753.881 828.992C763.86 851.693 790.103 862.301 813.054 852.927L914.951 811.272" stroke="#432F1F" stroke-miterlimit="10"/>
<path d="M249.524 602.393L261.23 656.741C268.433 690.161 308.407 704.159 334.878 682.525L393.218 634.833C417.285 615.164 453.534 624.712 464.79 653.679L495.691 733.183C505.687 758.912 536.018 769.981 560.235 756.761L653.372 705.894C676.459 693.283 705.384 703.672 715.163 728.1L753 822.541C762.155 845.38 787.741 856.89 810.892 848.577L914.945 811.242" stroke="#432F1F" stroke-miterlimit="10"/>
<path d="M257.538 574.446L266.971 630.16C272.722 664.157 312.613 679.804 339.944 658.773L397.784 614.29C422.486 595.289 458.554 606.031 468.844 635.457L497.289 716.858C506.402 742.945 536.386 755.053 561.059 742.605L656.088 694.675C679.58 682.822 708.153 694.166 717.13 718.904L752.384 816.078C760.705 839.039 785.607 851.401 808.927 844.156L914.955 811.259" stroke="#432F1F" stroke-miterlimit="10"/>
</g>
<defs>
<clipPath id="clip0_104_1437">
<rect width="243.82" height="575.86" fill="white" transform="translate(127.192 115) rotate(12.7603)"/>
</clipPath>
<clipPath id="clip1_104_1437">
<rect width="1334" height="1334" fill="white" transform="translate(1710.9 300.36) rotate(105)"/>
</clipPath>
</defs>
</svg>
