<?xml version="1.0" encoding="UTF-8"?>
<svg id="Layer_2" data-name="Layer 2" xmlns="http://www.w3.org/2000/svg" viewBox="0 0 1804.2 1804.11">
  <defs>
    <style>
      .cls-1 {
        fill: none;
        stroke: #123244;
        stroke-miterlimit: 10;
      }
    </style>
  </defs>
  <g id="Layer_1-2" data-name="Layer 1">
    <g>
      <g>
        <path class="cls-1" d="m1648.31,1408.29l9.88-77.11c5.98-46.66-40.23-82.66-84.01-65.45l-88.84,34.92c-39.36,15.47-82.3-12.23-84.44-54.47l-5.94-117.71c-1.89-37.38-36.26-64.54-73.06-57.73l-141.93,26.26c-35.01,6.48-67.82-19.09-70.09-54.63l-9.05-141.7c-2.09-32.71-29.33-58.12-62.11-57.93l-150.83.87"/>
        <path class="cls-1" d="m155.74,395.59l95.57,168.91c9.57,16.91,26.52,28.34,45.78,30.88l55.97,7.37c19.35,2.55,36.36,14.07,45.9,31.09l45.28,80.78c14.49,25.85,45.28,37.8,73.41,28.49l37.94-12.55c27.83-9.21,58.31,2.38,72.99,27.75l32.09,55.45c11.13,19.23,31.7,31.01,53.91,30.89l173.3-1"/>
      </g>
      <g>
        <path class="cls-1" d="m1625.52,1440.36l13.42-77.93c8.04-46.72-37.28-84.76-81.89-68.74l-86.73,31.14c-39.92,14.33-82.09-14.83-82.78-57.23l-1.93-118.98c-.61-37.46-34.1-65.79-71.14-60.18l-142.96,21.66c-35.21,5.33-67.17-21.3-68.27-56.89l-4.46-143.96c-1.01-32.51-27.01-58.68-59.51-59.92l-151.36-5.74"/>
        <path class="cls-1" d="m178.53,363.52l88.84,171.15c8.64,16.65,24.37,28.48,42.77,32.17l60.08,12.03c18.84,3.77,34.86,16.09,43.35,33.32l40.29,81.75c12.98,26.33,42.66,39.92,71.07,32.53l38.97-10.13c28.19-7.33,57.68,6,70.81,32.01l27.65,54.79c10.14,20.1,30.4,33.1,52.9,33.95l172.61,6.54"/>
      </g>
      <g>
        <path class="cls-1" d="m1601.34,1471.41l17-78.64c10.09-46.67-34.25-86.7-79.65-71.91l-84.42,27.5c-40.43,13.17-81.79-17.42-81.04-59.94l2.14-120.05c.67-37.49-31.9-66.96-69.14-62.55l-143.76,17c-35.37,4.18-66.44-23.48-66.38-59.09l.24-145.97c.05-32.26-24.69-59.15-56.84-61.77l-151.59-12.38"/>
        <path class="cls-1" d="m202.71,332.48l81.94,173c7.77,16.41,22.35,28.57,39.89,33.28l63.78,17.11c18.34,4.92,33.4,17.99,40.86,35.44l35.22,82.4c11.43,26.74,39.94,41.92,68.51,36.46l39.96-7.63c28.45-5.44,56.86,9.59,68.39,36.17l23.35,53.86c9.08,20.95,28.97,35.2,51.74,37.06l171.55,14.01"/>
      </g>
      <g>
        <path class="cls-1" d="m1575.84,1501.37l20.62-79.25c12.11-46.53-31.15-88.48-77.28-74.97l-81.94,24.01c-40.91,11.99-81.4-20.01-79.19-62.58l6.26-120.91c1.94-37.48-29.66-68.04-67.06-64.85l-144.31,12.32c-35.48,3.03-65.64-25.63-64.42-61.22l5.05-147.74c1.09-31.98-22.37-59.51-54.12-63.51l-151.54-19.06"/>
        <path class="cls-1" d="m228.21,302.52l74.9,174.45c6.94,16.18,20.45,28.63,37.13,34.24l67.02,22.54c17.84,6,31.99,19.8,38.42,37.49l30.1,82.71c9.86,27.09,37.12,43.79,65.74,40.25l40.91-5.05c28.6-3.53,55.86,13.15,65.73,40.22l19.2,52.68c7.94,21.79,27.4,37.31,50.41,40.21l170.11,21.4"/>
      </g>
      <g>
        <path class="cls-1" d="m1549.05,1530.19l24.29-79.74c14.1-46.28-27.98-90.12-74.8-77.91l-79.3,20.67c-41.34,10.78-80.91-22.59-77.26-65.16l10.42-121.57c3.21-37.42-27.39-69.05-64.9-67.07l-144.63,7.61c-35.56,1.87-64.76-27.75-62.39-63.27l9.96-149.25c2.11-31.66-20.07-59.79-51.35-65.12l-151.18-25.76"/>
        <path class="cls-1" d="m255,273.69l67.75,175.49c6.16,15.96,18.66,28.66,34.52,35.08l69.8,28.25c17.37,7.03,30.62,21.55,36.03,39.48l24.95,82.68c8.26,27.38,34.21,45.53,62.76,43.9l41.8-2.38c28.65-1.63,54.67,16.65,62.84,44.16l15.22,51.24c6.71,22.6,25.68,39.42,48.92,43.38l168.29,28.68"/>
      </g>
      <g>
        <path class="cls-1" d="m1521.03,1557.82l28-80.11c16.06-45.95-24.76-91.6-72.21-80.74l-76.5,17.5c-41.74,9.55-80.33-25.16-75.24-67.67l14.61-122.02c4.47-37.32-25.1-69.97-62.67-69.22l-144.7,2.89c-35.59.71-63.82-29.83-60.3-65.26l14.95-150.51c3.11-31.31-17.77-59.97-48.53-66.6l-150.53-32.46"/>
        <path class="cls-1" d="m283.02,246.07l60.5,176.13c5.42,15.76,16.96,28.68,32.02,35.81l72.12,34.17c16.91,8.01,29.28,23.24,33.66,41.43l19.82,82.31c6.64,27.6,31.21,47.13,59.6,47.39l42.6.39c28.6.26,53.3,20.09,59.73,47.96l11.44,49.58c5.39,23.37,23.8,41.52,47.25,46.57l166.11,35.82"/>
      </g>
      <g>
        <path class="cls-1" d="m1491.83,1584.19l31.75-80.36c17.99-45.52-21.5-92.92-69.52-83.45l-73.55,14.51c-42.09,8.3-79.66-27.71-73.13-70.12l18.81-122.25c5.72-37.17-22.77-70.81-60.38-71.28l-144.53-1.82c-35.59-.45-62.8-31.88-58.14-67.17l20-151.5c4.08-30.93-15.5-60.06-45.67-67.96l-149.58-39.16"/>
        <path class="cls-1" d="m312.22,219.69l53.2,176.36c4.7,15.58,15.35,28.69,29.65,36.47l73.96,40.27c16.46,8.96,27.98,24.91,31.3,43.36l14.73,81.61c5.01,27.75,28.14,48.6,56.26,50.72l43.31,3.25c28.46,2.14,51.76,23.46,56.42,51.62l7.88,47.71c3.98,24.09,21.76,43.59,45.38,49.77l163.57,42.82"/>
      </g>
      <g>
        <path class="cls-1" d="m1461.51,1609.27l35.54-80.48c19.88-45.01-18.19-94.09-66.73-86.04l-70.46,11.69c-42.41,7.04-78.89-30.25-70.94-72.5l23.03-122.28c6.96-36.98-20.42-71.57-58.01-73.27l-144.11-6.52c-35.55-1.61-61.72-33.9-55.93-69.01l25.11-152.23c5.03-30.52-13.24-60.06-42.79-69.19l-148.33-45.83"/>
        <path class="cls-1" d="m342.54,194.62l45.86,176.18c4.01,15.42,13.83,28.7,27.39,37.07l75.32,46.47c16.04,9.89,26.69,26.55,28.94,45.26l9.71,80.58c3.35,27.84,25,49.94,52.76,53.87l43.9,6.21c28.22,3.99,50.06,26.75,52.9,55.11l4.56,45.65c2.47,24.75,19.53,45.62,43.3,52.96l160.68,49.65"/>
      </g>
      <g>
        <path class="cls-1" d="m1430.12,1633l39.36-80.47c21.73-44.42-14.85-95.11-63.85-88.51l-67.25,9.06c-42.68,5.75-78.03-32.77-68.66-74.8l27.24-122.09c8.2-36.75-18.04-72.24-55.58-75.17l-143.46-11.19c-35.47-2.77-60.56-35.87-53.65-70.77l30.26-152.69c5.96-30.07-11-59.98-39.87-70.3l-146.77-52.47"/>
        <path class="cls-1" d="m373.93,170.88l38.51,175.61c3.35,15.28,12.37,28.73,25.23,37.63l76.23,52.75c15.62,10.81,25.41,28.19,26.56,47.15l4.79,79.24c1.68,27.85,21.8,51.14,49.12,56.84l44.36,9.27c27.9,5.83,48.21,29.95,49.19,58.43l1.5,43.43c.88,25.35,17.13,47.59,41.01,56.13l157.45,56.28"/>
      </g>
      <g>
        <path class="cls-1" d="m1397.73,1655.34l43.2-80.32c23.53-43.74-11.47-95.98-60.88-90.86l-63.92,6.63c-42.91,4.45-77.08-35.26-66.29-77.03l31.44-121.68c9.42-36.47-15.65-72.82-53.09-76.98l-142.57-15.82c-35.34-3.92-59.35-37.81-51.32-72.45l35.43-152.88c6.86-29.6-8.79-59.81-36.93-71.27l-144.92-59.05"/>
        <path class="cls-1" d="m406.32,148.55l31.17,174.63c2.71,15.16,10.96,28.76,23.16,38.15l76.68,59.05c15.21,11.71,24.13,29.83,24.13,49.03v77.6c0,27.8,18.54,52.19,45.33,59.63l44.67,12.4c27.49,7.63,46.2,33.06,45.3,61.57l-1.29,41.08c-.81,25.85,14.54,49.48,38.5,59.25l153.91,62.71"/>
      </g>
      <g>
        <path class="cls-1" d="m1364.4,1676.25l47.07-80.04c25.29-42.99-8.08-96.7-57.83-93.08l-60.49,4.4c-43.09,3.13-76.04-37.73-63.85-79.18l35.61-121.07c10.63-36.15-13.24-73.33-50.53-78.71l-141.44-20.4c-35.18-5.07-58.06-39.7-48.93-74.06l40.62-152.8c7.74-29.11-6.61-59.56-33.97-72.13l-142.76-65.57"/>
        <path class="cls-1" d="m439.65,127.64l23.87,173.26c2.07,15.05,9.61,28.81,21.18,38.66l76.7,65.33c14.81,12.62,22.83,31.47,21.64,50.89l-4.64,75.67c-1.7,27.68,15.23,53.11,41.42,62.23l44.82,15.6c27,9.4,44.04,36.06,41.24,64.5l-3.81,38.64c-2.59,26.26,11.77,51.28,35.75,62.29l150.05,68.92"/>
      </g>
      <g>
        <path class="cls-1" d="m1330.18,1695.68l50.96-79.62c26.99-42.17-4.67-97.27-54.69-95.18l-56.96,2.38c-43.22,1.8-74.91-40.17-61.33-81.24l39.75-120.25c11.83-35.79-10.81-73.75-47.92-80.34l-140.08-24.9c-34.98-6.22-56.72-41.55-46.49-75.58l45.8-152.44c8.59-28.58-4.45-59.22-31.01-72.85l-140.31-72.02"/>
        <path class="cls-1" d="m473.87,108.21l16.63,171.5c1.45,14.96,8.29,28.88,19.25,39.16l76.29,71.56c14.41,13.52,21.5,33.11,19.07,52.73l-9.09,73.48c-3.4,27.49,11.88,53.88,37.4,64.63l44.79,18.86c26.43,11.13,41.75,38.95,37.02,67.23l-6.04,36.15c-4.44,26.57,8.81,52.95,32.78,65.25l145.91,74.89"/>
      </g>
      <g>
        <path class="cls-1" d="m1295.15,1713.6l54.87-79.05c28.65-41.28-1.25-97.69-51.49-97.16l-53.36.57c-43.31.46-73.68-42.58-58.73-83.23l43.84-119.22c13.01-35.38-8.37-74.08-45.25-81.89l-135.77-28.76c-36.19-7.67-57.61-45.16-45.84-80.23l50.08-149.18c9.41-28.04-2.33-58.82-28.03-73.46l-137.56-78.37"/>
        <path class="cls-1" d="m508.9,90.29l9.46,169.36c.83,14.88,7.01,28.96,17.39,39.66l75.47,77.71c14.01,14.43,20.14,34.76,16.42,54.53l-13.34,71.05c-5.11,27.21,8.48,54.51,33.28,66.83l44.59,22.16c25.79,12.81,39.32,41.72,32.66,69.73l-8,33.63c-6.36,26.74,5.68,54.48,29.57,68.09l141.49,80.61"/>
      </g>
      <g>
        <path class="cls-1" d="m1259.38,1729.97l58.78-78.34c30.25-40.32,2.18-97.96-48.22-99l-49.7-1.03c-43.35-.9-72.36-44.95-56.06-85.13l47.88-117.99c14.18-34.94-5.92-74.32-42.53-83.35l-136.67-33.68c-34.46-8.49-53.83-45.11-41.47-78.37l56.09-150.92c10.21-27.47-.25-58.33-25.06-73.94l-134.52-84.61"/>
        <path class="cls-1" d="m544.67,73.91l2.41,166.84c.21,14.82,5.74,29.07,15.57,40.16l74.25,83.76c13.6,15.34,18.72,36.42,13.67,56.28l-17.38,68.42c-6.82,26.86,5.05,54.99,29.06,68.84l44.19,25.49c25.07,14.46,36.77,44.37,28.17,72l-9.69,31.12c-8.34,26.79,2.38,55.84,26.13,70.78l136.82,86.06"/>
      </g>
      <g>
        <path class="cls-1" d="m1222.92,1744.77l62.7-77.48c31.8-39.3,5.61-98.09-44.88-100.72l-45.99-2.4c-43.35-2.26-70.95-47.28-53.32-86.94l51.84-116.56c15.32-34.45-3.47-74.48-39.76-84.71l-134.63-37.92c-34.14-9.62-52.3-46.81-38.89-79.64l61.18-149.75c10.98-26.88,1.8-57.78-22.08-74.29l-131.19-90.74"/>
        <path class="cls-1" d="m581.13,59.11l-4.52,163.95c-.41,14.77,4.48,29.19,13.78,40.67l72.67,89.66c13.17,16.25,17.24,38.06,10.81,57.97l-21.18,65.59c-8.53,26.43,1.59,55.31,24.76,70.63l43.6,28.83c24.29,16.06,34.1,46.88,23.55,74.02l-11.14,28.67c-10.37,26.69-1.07,57.01,22.48,73.3l131.91,91.24"/>
      </g>
      <g>
        <path class="cls-1" d="m1185.85,1757.97l76.34-87.63c29.26-33.59,7.94-86.19-36.46-89.92l-56.97-4.78c-43.29-3.63-69.45-49.57-50.5-88.66l55.73-114.93c16.45-33.93-1.01-74.56-36.94-85.97l-129.74-41.21c-35.19-11.18-52.82-50.48-37.77-84.19l65.07-145.79c11.72-26.27,3.8-57.15-19.12-74.53l-127.58-96.73"/>
        <path class="cls-1" d="m618.2,45.92l-11.3,160.7c-1.04,14.72,3.23,29.33,12.02,41.19l70.73,95.41c12.73,17.17,15.7,39.7,7.84,59.59l-24.74,62.62c-10.24,25.92-1.89,55.48,20.39,72.21l42.83,32.17c23.44,17.61,31.31,49.25,18.85,75.79l-12.35,26.29c-12.42,26.44-4.66,57.97,18.62,75.62l126.79,96.14"/>
      </g>
      <g>
        <path class="cls-1" d="m1148.24,1769.53l80.7-86.17c30.52-32.59,10.94-86.04-33.42-91.2l-53.23-6.18c-43.18-5.02-67.86-51.82-47.61-90.29l59.54-113.11c17.56-33.36,1.46-74.55-34.08-87.14l-127.31-45.13c-34.77-12.33-51.1-52.15-35-85.34l69.94-144.13c12.44-25.64,5.76-56.45-16.17-74.64l-123.69-102.58"/>
        <path class="cls-1" d="m655.81,34.35l-17.91,157.1c-1.68,14.69,1.96,29.49,10.26,41.73l68.46,100.98c12.27,18.1,14.08,41.33,4.75,61.1l-28.06,59.52c-11.93,25.31-5.39,55.48,15.96,73.58l41.86,35.49c22.53,19.1,28.42,51.47,14.06,77.28l-13.37,24.03c-14.49,26.03-8.36,58.7,14.57,77.72l121.49,100.75"/>
      </g>
      <g>
        <path class="cls-1" d="m1110.16,1779.45l85.03-84.53c31.73-31.54,13.92-85.77-30.33-92.36l-49.46-7.36c-43.02-6.4-66.18-54.02-44.66-91.82l63.25-111.11c18.65-32.76,3.92-74.45-31.18-88.22l-124.69-48.92c-34.32-13.46-49.32-53.75-32.18-86.38l74.73-142.22c13.13-24.99,7.68-55.69-13.24-74.64l-119.53-108.27"/>
        <path class="cls-1" d="m693.89,24.44l-24.34,153.16c-2.33,14.66.69,29.67,8.5,42.29l65.86,106.36c11.78,19.02,12.37,42.92,1.55,62.51l-31.13,56.33c-13.61,24.62-8.89,55.32,11.47,74.73l40.71,38.79c21.56,20.54,25.43,53.53,9.21,78.51l-14.22,21.89c-16.54,25.47-12.16,59.18,10.35,79.57l116.01,105.08"/>
      </g>
      <g>
        <path class="cls-1" d="m1071.69,1787.69l89.33-82.72c32.88-30.45,16.89-85.37-27.2-93.41l-45.67-8.32c-42.8-7.8-64.41-56.17-41.65-93.25l66.86-108.92c19.72-32.12,6.38-74.26-28.23-89.19l-121.88-52.56c-33.82-14.58-47.49-55.3-29.32-87.34l79.41-140.06c13.79-24.32,9.56-54.87-10.33-74.52l-115.1-113.78"/>
        <path class="cls-1" d="m732.36,16.2l-30.55,148.89c-3,14.63-.61,29.86,6.73,42.86l62.97,111.52c11.26,19.95,10.59,44.48-1.76,63.78l-33.96,53.07c-15.26,23.84-12.39,54.99,6.95,75.65l39.38,42.05c20.53,21.93,22.35,55.43,4.32,79.45l-14.94,19.9c-18.58,24.74-16.02,59.41,5.98,81.16l110.38,109.12"/>
      </g>
      <g>
        <path class="cls-1" d="m1032.89,1794.25l93.58-80.74c33.98-29.32,19.83-84.85-24.04-94.33l-41.87-9.05c-42.53-9.19-62.54-58.26-38.57-94.57l70.35-106.57c20.76-31.45,8.83-73.99-25.25-90.06l-118.88-56.05c-33.28-15.69-45.6-56.79-26.43-88.2l83.99-137.66c14.42-23.64,11.38-53.98-7.44-74.29l-110.41-119.11"/>
        <path class="cls-1" d="m771.16,9.64l-36.53,144.31c-3.7,14.6-1.94,30.05,4.94,43.45l59.81,116.45c10.72,20.87,8.71,46-5.18,64.9l-36.56,49.77c-16.87,22.96-15.88,54.48,2.4,76.34l37.87,45.27c19.44,23.24,19.19,57.15-.59,80.1l-15.57,18.06c-20.57,23.86-19.93,59.36,1.49,82.47l104.63,112.87"/>
      </g>
      <g>
        <path class="cls-1" d="m993.84,1799.11l97.78-78.58c35.02-28.14,22.75-84.21-20.83-95.14l-38.1-9.56c-42.21-10.59-60.59-60.29-35.43-95.79l73.73-104.04c21.78-30.73,11.28-73.63-22.24-90.83l-115.71-59.38c-32.7-16.78-43.65-58.21-23.51-88.96l88.43-135.01c15.03-22.94,13.16-53.04-4.59-73.95l-105.47-124.24"/>
        <path class="cls-1" d="m810.21,4.78l-42.26,139.43c-4.42,14.57-3.31,30.25,3.12,44.06l56.38,121.15c10.14,21.78,6.75,47.46-8.69,65.87l-38.95,46.44c-18.45,22-19.34,53.8-2.15,76.8l36.19,48.44c18.3,24.5,15.97,58.69-5.5,80.47l-16.15,16.38c-22.5,22.83-23.84,59.05-3.1,83.48l98.76,116.34"/>
      </g>
      <g>
        <path class="cls-1" d="m954.62,1802.26l101.94-76.25c36.01-26.93,25.63-83.44-17.59-95.83l-34.35-9.85c-41.83-11.99-58.55-62.26-32.23-96.91l76.98-101.36c22.77-29.98,13.71-73.19-19.19-91.49l-112.38-62.54c-32.09-17.86-41.65-59.56-20.56-89.62l92.75-132.14c15.61-22.23,14.89-52.05-1.77-73.5l-100.29-129.16"/>
        <path class="cls-1" d="m849.43,1.63l-47.72,134.27c-5.16,14.53-4.72,30.46,1.25,44.67l52.71,125.6c9.52,22.68,4.7,48.85-12.28,66.65l-41.13,43.12c-19.97,20.94-22.76,52.94-6.71,77.02l34.35,51.55c17.12,25.68,12.69,60.05-10.38,80.56l-16.71,14.85c-24.35,21.65-27.74,58.46-7.76,84.2l92.81,119.52"/>
      </g>
      <g>
        <path class="cls-1" d="m915.3,1803.7l106.03-73.75c36.93-25.69,28.48-82.55-14.32-96.39l-30.66-9.91c-41.39-13.38-56.41-64.16-28.98-97.91l80.09-98.52c23.74-29.2,16.13-72.65-16.11-92.05l-108.9-65.52c-31.43-18.91-39.6-60.85-17.58-90.18l96.91-129.03c16.16-21.51,16.56-51,1-72.94l-94.88-133.85"/>
        <path class="cls-1" d="m888.75.19l-52.9,128.83c-5.94,14.47-6.18,30.65-.68,45.29l48.83,129.79c8.87,23.57,2.57,50.16-15.94,67.25l-43.12,39.82c-21.44,19.8-26.13,51.9-11.25,77.01l32.35,54.59c15.88,26.8,9.37,61.23-15.21,80.37l-17.29,13.46c-26.11,20.33-31.6,57.61-12.46,84.6l86.78,122.43"/>
      </g>
      <g>
        <path class="cls-1" d="m875.95,1803.42l110.05-71.08c37.79-24.41,31.29-81.54-11.03-96.83l-27.02-9.76c-40.89-14.77-54.19-65.99-25.67-98.8l83.06-95.54c24.68-28.38,18.54-72.03-13.01-92.51l-105.27-68.31c-30.73-19.94-37.51-62.07-14.57-90.64l100.91-125.72c16.68-20.78,18.18-49.89,3.74-72.28l-89.24-138.32"/>
        <path class="cls-1" d="m928.1.47l-57.78,123.15c-6.75,14.39-7.71,30.84-2.66,45.92l44.74,133.71c8.18,24.44.35,51.39-19.65,67.65l-44.94,36.54c-22.85,18.58-29.44,50.68-15.76,76.76l30.2,57.57c14.61,27.84,6.01,62.21-19.98,79.9l-17.92,12.2c-27.76,18.9-35.38,56.48-17.18,84.7l80.7,125.08"/>
      </g>
      <g>
        <path class="cls-1" d="m836.66,1801.42l114.01-68.25c38.6-23.11,34.05-80.41-7.71-97.14l-23.47-9.4c-40.32-16.16-51.89-67.74-22.31-99.56l85.89-92.42c25.59-27.53,20.92-71.33-9.89-92.85l-101.51-70.91c-30-20.95-35.36-63.22-11.54-91l104.75-122.19c17.17-20.03,19.75-48.75,6.43-71.52l-83.39-142.54"/>
        <path class="cls-1" d="m967.39,2.46l-62.34,117.24c-7.6,14.3-9.3,31-4.72,46.53l40.46,137.35c7.45,25.29-1.94,52.52-23.39,67.84l-46.62,33.3c-24.18,17.27-32.67,49.3-20.22,76.28l27.9,60.47c13.29,28.81,2.64,63-24.65,79.17l-18.64,11.04c-29.29,17.35-39.07,55.1-21.88,84.49l74.57,127.46"/>
      </g>
      <g>
        <path class="cls-1" d="m797.49,1797.72l117.88-65.25c39.34-21.77,36.76-79.17-4.37-97.33l-20.02-8.84c-39.7-17.53-49.49-69.42-18.91-100.21l88.58-89.18c26.47-26.65,23.28-70.53-6.75-93.08l-97.63-73.31c-29.22-21.94-33.16-64.29-8.5-91.25l108.4-118.47c17.64-19.28,21.27-47.55,9.07-70.66l-77.34-146.5"/>
        <path class="cls-1" d="m1006.57,6.17l-66.56,111.12c-8.49,14.17-10.96,31.14-6.86,47.14l36.02,140.71c6.68,26.11-4.3,53.54-27.16,67.82l-48.17,30.1c-25.44,15.89-35.81,47.74-24.62,75.57l25.46,63.3c11.94,29.7-.73,63.6-29.23,78.18l-19.45,9.95c-30.7,15.71-42.64,53.48-26.54,83.98l68.41,129.59"/>
      </g>
      <g>
        <path class="cls-1" d="m758.51,1792.3l121.67-62.08c40.02-20.42,39.42-77.8-1.01-97.39l-16.68-8.08c-39.01-18.89-47.01-71.01-15.46-100.73l91.1-85.82c27.31-25.73,25.62-69.65-3.59-93.21l-93.63-75.51c-28.41-22.91-30.92-65.29-5.43-91.4l111.86-114.55c18.08-18.51,22.73-46.32,11.66-69.7l-71.1-150.2"/>
        <path class="cls-1" d="m1045.54,11.58l-70.44,104.82c-9.41,14-12.69,31.24-9.09,47.73l31.43,143.78c5.88,26.9-6.72,54.45-30.92,67.59l-49.6,26.93c-26.61,14.45-38.85,46.02-28.94,74.63l22.88,66.05c10.57,30.51-4.1,64.02-33.68,76.95l-20.39,8.91c-31.98,13.98-46.07,51.62-31.14,83.17l62.23,131.48"/>
      </g>
      <g>
        <path class="cls-1" d="m719.81,1785.2l125.38-58.75c40.63-19.04,42.02-76.32,2.36-97.31l-13.48-7.13c-38.26-20.25-44.44-72.51-11.96-101.12l93.47-82.35c28.13-24.78,27.93-68.69-.41-93.22l-89.55-77.49c-27.55-23.84-28.64-66.21-2.35-91.44l115.12-110.46c18.49-17.74,24.13-45.04,14.19-68.66l-64.67-153.63"/>
        <path class="cls-1" d="m1084.24,18.69l-73.95,98.35c-10.37,13.8-14.51,31.3-11.42,48.28l26.71,146.56c5.04,27.66-9.2,55.25-34.67,67.15l-50.94,23.81c-27.68,12.94-41.78,44.15-33.17,73.47l20.16,68.72c9.16,31.24-7.45,64.24-38.01,75.49l-21.46,7.9c-33.12,12.19-49.35,49.56-35.66,82.08l56.04,133.13"/>
      </g>
      <g>
        <path class="cls-1" d="m681.46,1776.41l128.99-55.26c41.18-17.64,44.56-74.73,5.74-97.11l-10.42-6.01c-37.44-21.58-41.79-73.91-8.43-101.38l95.68-78.78c28.91-23.81,30.21-67.63,2.77-93.11l-85.37-79.26c-26.66-24.75-26.32-67.05.74-91.37l118.17-106.2c18.87-16.96,25.48-43.73,16.66-67.52l-58.08-156.77"/>
        <path class="cls-1" d="m1122.59,27.48l-77.09,91.74c-11.38,13.54-16.42,31.3-13.85,48.8l21.88,149.05c4.17,28.39-11.73,55.92-38.39,66.5l-52.19,20.72c-28.67,11.38-44.58,42.13-37.3,72.11l17.3,71.29c7.74,31.9-10.77,64.29-42.18,73.81l-22.67,6.87c-34.11,10.34-52.46,47.29-40.07,80.71l49.85,134.54"/>
      </g>
      <g>
        <path class="cls-1" d="m643.52,1765.95l132.51-51.62c41.67-16.23,47.03-73.02,9.13-96.76l-7.53-4.72c-36.54-22.89-39.05-75.21-4.86-101.5l97.72-75.12c29.66-22.8,32.46-66.49,5.96-92.9l-81.12-80.81c-25.73-25.63-23.96-67.81,3.84-91.19l121-101.79c19.23-16.18,26.77-42.38,19.07-66.3l-51.34-159.62"/>
        <path class="cls-1" d="m1160.53,37.93l-79.86,85.02c-12.42,13.22-18.41,31.23-16.39,49.26l16.96,151.23c3.26,29.07-14.29,56.46-42.07,65.64l-53.38,17.65c-29.55,9.77-47.25,39.98-41.32,70.54l14.32,73.78c6.3,32.47-14.05,64.16-46.2,71.94l-24.01,5.81c-34.97,8.45-55.38,44.84-44.37,79.09l43.66,135.74"/>
      </g>
      <g>
        <path class="cls-1" d="m606.08,1753.86l135.92-47.82c42.09-14.81,49.42-71.2,12.52-96.28l-4.82-3.27c-35.58-24.19-36.23-76.41-1.26-101.47l99.61-71.38c30.37-21.76,34.67-65.27,9.15-92.56l-76.81-82.15c-24.76-26.48-21.56-68.48,6.94-90.9l123.61-97.22c19.56-15.39,28-40.99,21.42-64.99l-44.46-162.17"/>
        <path class="cls-1" d="m1197.97,50.03l-82.23,78.22c-13.5,12.84-20.49,31.08-19.04,49.65l11.95,153.11c2.32,29.72-16.88,56.87-45.68,64.59l-54.51,14.6c-30.34,8.13-49.78,37.7-45.2,68.78l11.21,76.16c4.85,32.97-17.28,63.86-50.06,69.87l-25.5,4.67c-35.68,6.54-58.11,42.24-48.52,77.22l37.48,136.72"/>
      </g>
      <g>
        <path class="cls-1" d="m569.2,1740.14l139.22-43.87c42.44-13.37,51.73-69.27,15.91-95.65l-2.3-1.7c-34.55-25.45-33.33-77.49,2.37-101.3l101.33-67.57c31.04-20.7,36.84-63.96,12.35-92.11l-72.46-83.25c-23.76-27.3-19.12-69.07,10.05-90.49l125.98-92.53c19.87-14.59,29.18-39.58,23.7-63.61l-37.44-164.42"/>
        <path class="cls-1" d="m1234.85,63.75l-84.21,71.36c-14.61,12.38-22.67,30.83-21.81,49.96l6.89,154.68c1.35,30.32-19.49,57.15-49.21,63.33l-55.58,11.56c-31.03,6.46-52.16,35.31-48.96,66.83l7.97,78.45c3.39,33.39-20.45,63.4-53.75,67.64l-27.1,3.45c-36.26,4.61-60.64,39.48-52.52,75.12l31.31,137.49"/>
      </g>
      <g>
        <path class="cls-1" d="m532.96,1724.82l142.41-39.76c42.72-11.93,53.96-67.22,19.3-94.89h0c-33.44-26.69-30.35-78.46,6.03-100.98l102.88-63.69c31.68-19.61,38.97-62.57,15.54-91.53l-68.07-84.14c-22.72-28.08-16.66-69.57,13.15-89.98l128.12-87.71c20.14-13.79,30.3-38.14,25.92-62.15l-30.32-166.35"/>
        <path class="cls-1" d="m1271.09,79.07l-85.79,64.47c-15.75,11.84-24.93,30.47-24.7,50.17l1.78,155.94c.35,30.88-22.12,57.3-52.66,61.9l-56.61,8.52c-31.61,4.76-54.39,32.81-52.56,64.72l4.61,80.62c1.93,33.74-23.56,62.78-57.26,65.25l-28.83,2.11c-36.7,2.68-62.96,36.61-56.36,72.81l25.16,138.05"/>
      </g>
      <g>
        <path class="cls-1" d="m497.42,1707.94l169.54-41.39c32.85-8.02,42.93-49.79,17.35-71.91l-16.65-14.4c-32.26-27.89-27.3-79.29,9.7-100.5l104.27-59.76c32.28-18.5,41.05-61.09,18.72-90.84l-63.66-84.8c-21.64-28.83-14.16-69.98,16.25-89.34l130.01-82.79c20.4-12.99,31.36-36.67,28.06-60.62l-23.1-167.96"/>
        <path class="cls-1" d="m1306.63,95.95l-86.98,57.59c-16.92,11.2-27.27,29.99-27.7,50.27l-3.35,156.9c-.67,31.39-24.75,57.31-56.01,60.28l-57.58,5.47c-32.09,3.05-56.46,30.22-56.02,62.45l1.13,82.67c.47,34-26.6,62.01-60.6,62.71l-30.66.63c-37.01.76-65.07,33.63-60.03,70.29l19.03,138.41"/>
      </g>
      <g>
        <path class="cls-1" d="m462.65,1689.52l172.45-36.16c32.96-6.91,44.49-48.06,19.92-71.09l-13.99-13.11c-31-29.05-24.17-79.99,13.39-99.85l105.5-55.78c32.83-17.36,43.08-59.52,21.89-90.02l-59.24-85.24c-20.53-29.54-11.63-70.29,19.34-88.59l131.65-77.77c20.62-12.18,32.36-35.17,30.14-59.02l-15.79-169.25"/>
        <path class="cls-1" d="m1341.41,114.36l-87.77,50.74c-18.1,10.46-29.69,29.36-30.82,50.24l-8.49,157.54c-1.72,31.86-27.38,57.19-59.26,58.5l-58.52,2.4c-32.47,1.33-58.37,27.55-59.32,60.03l-2.46,84.6c-.99,34.2-29.56,61.1-63.75,60.05l-32.57-1c-37.19-1.14-66.97,30.55-63.51,67.6l12.93,138.57"/>
      </g>
      <g>
        <path class="cls-1" d="m428.71,1669.61l175.19-30.79c33.01-5.8,45.97-46.26,22.47-70.16l-11.53-11.73c-29.66-30.17-20.97-80.55,17.09-99.04l106.57-51.76c33.35-16.2,45.06-57.88,25.05-89.08l-54.83-85.45c-19.38-30.21-9.08-70.51,22.42-87.72l133.04-72.67c20.82-11.38,33.31-33.66,32.14-57.36l-8.41-170.21"/>
        <path class="cls-1" d="m1375.34,134.28l-88.17,43.96c-19.29,9.62-32.19,28.58-34.04,50.06l-13.62,157.88c-2.78,32.28-29.99,56.94-62.38,56.55l-59.4-.71c-32.75-.39-60.13,24.8-62.46,57.47l-6.16,86.4c-2.45,34.32-32.43,60.06-66.73,57.27l-34.54-2.8c-37.25-3.02-68.65,27.41-66.81,64.73l6.85,138.53"/>
      </g>
      <g>
        <path class="cls-1" d="m395.68,1648.23l177.74-25.29c33.01-4.7,47.37-44.37,25.01-69.11l-9.28-10.26c-28.24-31.24-17.7-80.96,20.8-98.05l107.49-47.72c33.82-15.01,46.99-56.15,28.18-88.01l-50.44-85.45c-18.2-30.84-6.51-70.64,25.48-86.73l134.17-67.5c21-10.57,34.2-32.12,34.07-55.63l-.98-170.84"/>
        <path class="cls-1" d="m1408.38,155.66l-88.19,37.27c-20.48,8.65-34.74,27.63-37.36,49.71l-18.73,157.91c-3.87,32.64-32.59,56.56-65.39,54.46l-60.23-3.85c-32.93-2.1-61.72,22-65.43,54.79l-9.97,88.06c-3.89,34.38-35.22,58.88-69.52,54.39l-36.56-4.79c-37.19-4.87-70.13,24.2-69.91,61.71l.8,138.3"/>
      </g>
      <g>
        <path class="cls-1" d="m363.6,1625.43l180.11-19.67c32.96-3.6,48.68-42.41,27.52-67.93l-7.25-8.75c-26.74-32.26-14.37-81.21,24.5-96.88l108.25-43.65c34.24-13.81,48.85-54.34,31.29-86.82l-46.08-85.23c-16.99-31.42-3.92-70.66,28.52-85.62l135.04-62.28c21.15-9.76,35.04-30.57,35.92-53.85l6.48-171.13"/>
        <path class="cls-1" d="m1440.45,178.45l-87.85,30.71c-21.65,7.57-37.34,26.5-40.76,49.18l-23.79,157.63c-4.97,32.96-35.16,56.05-68.27,52.24l-61.01-7.03c-33.02-3.81-63.14,19.15-68.23,52l-13.88,89.57c-5.33,34.36-37.91,57.59-72.14,51.42l-38.59-6.96c-37.03-6.68-71.4,20.95-72.82,58.55l-5.22,137.87"/>
      </g>
      <g>
        <path class="cls-1" d="m332.56,1601.26l182.28-13.93c32.84-2.51,49.89-40.37,30-66.62l-5.46-7.2c-25.16-33.21-10.97-81.29,28.19-95.53l108.87-39.56c34.63-12.58,50.65-52.44,34.38-85.49l-41.76-84.8c-15.74-31.96-1.31-70.58,31.54-84.38l135.64-57.01c21.28-8.95,35.82-29,37.7-52.01l13.98-171.08"/>
        <path class="cls-1" d="m1471.49,202.63l-87.15,24.3c-22.8,6.36-39.97,25.16-44.24,48.44l-28.8,157.06c-6.09,33.22-37.7,55.42-71.02,49.88l-61.72-10.27c-33.01-5.49-64.41,16.26-70.87,49.1l-17.88,90.93c-6.74,34.29-40.52,56.19-74.57,48.37l-40.63-9.33c-36.76-8.45-72.46,17.68-75.53,55.27l-11.21,137.24"/>
      </g>
      <g>
        <path class="cls-1" d="m302.6,1575.75l184.26-8.08c32.67-1.43,51-38.26,32.44-65.19l-3.9-5.65c-23.5-34.09-7.53-81.2,31.86-93.97l109.34-35.47c34.96-11.34,52.39-50.47,37.43-84.04l-37.5-84.16c-14.46-32.45,1.31-70.39,34.52-83.02l135.99-51.72c21.39-8.13,36.54-27.41,39.4-50.11l21.47-170.69"/>
        <path class="cls-1" d="m1501.45,228.13l-86.12,18.07c-23.9,5.02-42.62,23.62-47.78,47.5l-33.73,156.18c-7.22,33.44-40.2,54.67-73.63,47.4l-62.35-13.56c-32.92-7.16-65.52,13.34-73.34,46.11l-21.97,92.13c-8.14,34.14-43.02,54.68-76.83,45.25l-42.64-11.9c-36.39-10.16-73.32,14.39-78.03,51.88l-17.16,136.43"/>
      </g>
      <g>
        <path class="cls-1" d="m273.78,1548.97l186.03-2.12c32.45-.37,52.01-36.08,34.84-63.62l-2.57-4.13c-21.75-34.9-4.04-80.91,35.5-92.22l109.67-31.37c35.25-10.08,54.05-48.42,40.44-82.46l-33.31-83.32c-13.15-32.9,3.95-70.1,37.48-81.54l136.07-46.41c21.47-7.32,37.21-25.81,41.02-48.17l28.96-169.96"/>
        <path class="cls-1" d="m1530.27,254.92l-84.78,12.05c-24.95,3.54-45.26,21.87-51.34,46.32l-38.56,155.01c-8.36,33.6-42.66,53.8-76.1,44.82l-62.91-16.9c-32.75-8.8-66.47,10.4-75.63,43.04l-26.14,93.16c-9.52,33.94-45.43,53.08-78.91,42.07l-44.61-14.67c-35.94-11.82-73.98,11.09-80.33,48.39l-23.07,135.41"/>
      </g>
      <g>
        <path class="cls-1" d="m246.15,1520.95l187.6,3.94c32.16.68,52.9-33.84,37.2-61.92l-1.49-2.66c-19.92-35.62-.51-80.43,39.1-90.26l109.87-27.27c35.49-8.81,55.64-46.3,43.41-80.75l-29.21-82.29c-11.81-33.29,6.59-69.69,40.4-79.92l135.88-41.11c21.53-6.51,37.83-24.2,42.57-46.18l36.42-168.89"/>
        <path class="cls-1" d="m1557.9,282.94l-83.16,6.24c-25.93,1.95-47.87,19.89-54.93,44.91l-43.29,153.56c-9.5,33.71-45.07,52.82-78.43,42.14l-63.38-20.3c-32.49-10.41-67.27,7.44-77.76,39.91l-30.37,94.02c-10.88,33.68-47.74,51.38-80.83,38.83l-46.51-17.64c-35.4-13.43-74.45,7.8-82.43,44.81l-28.94,134.2"/>
      </g>
      <g>
        <path class="cls-1" d="m219.78,1491.75l188.95,10.1c31.82,1.7,53.67-31.53,39.49-60.07l-.63-1.27c-18-36.24,3.06-79.73,42.66-88.08l109.94-23.17c35.67-7.52,57.15-44.09,46.33-78.91l-25.19-81.08c-10.45-33.62,9.23-69.18,43.27-78.18l135.43-35.82c21.56-5.7,38.39-22.57,44.04-44.15l43.84-167.48"/>
        <path class="cls-1" d="m1584.28,312.14l-81.27.67c-26.81.22-50.43,17.69-58.5,43.26l-47.9,151.83c-10.66,33.78-47.43,51.73-80.62,39.37l-63.75-23.76c-32.15-11.98-67.92,4.48-79.71,36.71l-34.67,94.69c-12.21,33.36-49.94,49.6-82.57,35.56l-48.32-20.8c-34.78-14.97-74.74,4.53-84.33,41.17l-34.76,132.78"/>
      </g>
      <g>
        <path class="cls-1" d="m194.7,1461.43l190.09,16.34c31.42,2.7,54.31-29.17,41.72-58.08h0c-16.01-36.76,6.64-78.81,46.14-85.67l109.89-19.08c35.81-6.22,58.57-41.82,49.2-76.93l-21.28-79.68c-9.05-33.91,11.87-68.55,46.09-76.31l134.72-30.56c21.58-4.89,38.9-20.94,45.43-42.08l51.21-165.73"/>
        <path class="cls-1" d="m1609.35,342.46l-79.15-4.64c-27.59-1.62-52.91,15.26-62.03,41.36l-52.37,149.83c-11.81,33.79-49.74,50.54-82.66,36.51l-64.02-27.27c-31.74-13.52-68.41,1.53-81.5,33.45l-39.03,95.18c-13.52,32.98-52.05,47.75-84.15,32.25l-50.02-24.14c-34.09-16.46-74.84,1.29-86.02,37.46l-40.53,131.17"/>
      </g>
      <g>
        <path class="cls-1" d="m170.97,1430.04l194.59,23.09c29.32,3.48,51.92-25.33,41.55-52.98l-.85-2.26c-13.94-37.17,10.22-77.66,49.55-83.04l109.72-15c35.89-4.91,59.91-39.47,52-74.82l-17.48-78.12c-7.64-34.13,14.51-67.8,48.87-74.31l133.74-25.34c21.57-4.09,39.36-19.3,46.75-39.97l58.5-163.64"/>
        <path class="cls-1" d="m1633.08,373.84l-76.82-9.7c-28.26-3.57-55.3,12.62-65.51,39.2l-56.69,147.58c-12.96,33.75-51.98,49.24-84.57,33.58l-64.16-30.84c-31.26-15.02-68.77-1.42-83.13,30.15l-43.42,95.47c-14.81,32.56-54.05,45.82-85.57,28.92l-51.59-27.66c-33.34-17.88-74.77-1.92-87.51,33.7l-46.24,129.36"/>
      </g>
      <g>
        <path class="cls-1" d="m148.63,1397.65l195.18,29.59c28.83,4.37,52.27-23,43.5-50.82l-.41-1.3c-11.8-37.44,13.8-76.27,52.86-80.17l109.44-10.94c35.92-3.59,61.16-37.04,54.74-72.57l-13.8-76.41c-6.19-34.29,17.13-66.93,51.58-72.17l132.51-20.18c21.54-3.28,39.77-17.65,47.99-37.82l65.69-161.22"/>
        <path class="cls-1" d="m1655.42,406.24l-74.32-14.48c-28.79-5.61-57.56,9.76-68.9,36.8l-60.84,145.07c-14.12,33.66-54.16,47.85-86.32,30.59l-64.19-34.45c-30.72-16.48-68.98-4.35-84.59,26.82l-47.85,95.57c-16.06,32.08-55.95,43.82-86.83,25.56l-53.02-31.35c-32.52-19.23-74.54-5.08-88.8,29.91l-51.89,127.34"/>
      </g>
      <g>
        <path class="cls-1" d="m127.72,1364.32l195.52,36.15c28.29,5.23,52.47-20.63,45.35-48.51l-.14-.54c-9.59-37.58,17.35-74.62,56.06-77.06l109.04-6.88c35.9-2.26,62.31-34.56,57.4-70.19l-10.26-74.54c-4.73-34.39,19.74-65.94,54.22-69.91l131.03-15.09c21.49-2.47,40.12-15.99,49.15-35.64l72.79-158.47"/>
        <path class="cls-1" d="m1676.33,439.57l-71.67-19.01c-29.17-7.74-59.67,6.7-72.17,34.16l-64.82,142.33c-15.27,33.53-56.27,46.37-87.94,27.54l-64.08-38.1c-30.11-17.9-69.06-7.26-85.89,23.46l-52.3,95.47c-17.29,31.55-57.74,41.76-87.93,22.19l-54.28-35.2c-31.65-20.52-74.15-8.19-89.89,26.09l-57.47,125.11"/>
      </g>
      <g>
        <path class="cls-1" d="m108.29,1330.1l195.62,42.76c27.69,6.05,52.53-18.23,47.1-46.05h0c-7.33-37.56,20.86-72.71,59.12-73.71l108.55-2.83c35.82-.93,63.36-32,59.99-67.67l-6.85-72.55c-3.25-34.42,22.33-64.82,56.8-67.51l129.29-10.08c21.42-1.67,40.43-14.32,50.24-33.44l79.76-155.39"/>
        <path class="cls-1" d="m1695.76,473.78l-68.9-23.27c-29.4-9.93-61.61,3.45-75.31,31.29l-68.62,139.36c-16.42,33.34-58.31,44.79-89.41,24.44l-63.83-41.79c-29.44-19.27-69.01-10.15-87.03,20.07l-56.76,95.16c-18.48,30.98-59.44,39.65-88.88,18.81l-55.37-39.18c-30.73-21.75-73.6-11.24-90.79,22.26l-62.97,122.68"/>
      </g>
      <g>
        <path class="cls-1" d="m90.37,1295.07l195.77,49.49c26.89,6.8,52.14-15.72,48.46-43.21v-.03c-5.02-37.39,24.29-70.52,62.01-70.1l107.94,1.2c35.68.4,64.3-29.39,62.49-65.02l-3.59-70.43c-1.75-34.38,24.89-63.58,59.29-64.97l127.32-5.16c21.32-.87,40.69-12.66,51.26-31.2l86.59-151.98"/>
        <path class="cls-1" d="m1713.68,508.81l-66.03-27.28c-29.47-12.17-63.36.04-78.29,28.2l-72.21,136.19c-17.56,33.11-60.28,43.14-90.73,21.29l-63.44-45.51c-28.72-20.6-68.83-13-88.02,16.67l-61.22,94.64c-19.64,30.37-61.03,37.49-89.69,15.43l-56.27-43.3c-29.77-22.9-72.91-14.22-91.5,18.41l-68.39,120.04"/>
      </g>
      <g>
        <path class="cls-1" d="m73.99,1259.29l195.33,56.18c26.19,7.53,51.89-13.3,49.93-40.49h0c-2.67-37.03,27.65-68.06,64.73-66.25l107.24,5.23c35.48,1.73,65.14-26.71,64.89-62.24l-.47-68.21c-.24-34.27,27.42-62.21,61.7-62.31l125.1-.36c21.21-.06,40.91-10.98,52.2-28.93l93.26-148.27"/>
        <path class="cls-1" d="m1730.06,544.59l-63.09-31.04c-29.36-14.45-64.9-3.53-81.09,24.91l-75.6,132.81c-18.69,32.83-62.18,41.4-91.92,18.11l-62.89-49.24c-27.94-21.88-68.52-15.82-88.86,13.26l-65.67,93.92c-20.77,29.71-62.52,35.28-90.35,12.05l-56.96-47.52c-28.76-24-72.08-17.14-92.02,14.57l-73.72,117.2"/>
      </g>
      <g>
        <path class="cls-1" d="m59.2,1222.84l194.62,62.89c25.44,8.22,51.47-10.88,51.25-37.62v-.26c-.3-36.49,30.87-65.32,67.23-62.16l106.43,9.24c35.23,3.06,65.85-23.98,67.19-59.31l2.49-65.89c1.29-34.09,29.92-60.71,64.01-59.51l122.66,4.31c21.07.74,41.07-9.3,53.07-26.64l99.77-144.24"/>
        <path class="cls-1" d="m1744.86,581.05l-60.09-34.57c-29.09-16.73-66.22-7.22-83.69,21.43l-78.78,129.26c-19.81,32.51-64,39.58-92.97,14.89l-62.19-52.99c-27.12-23.11-68.1-18.6-89.54,9.85l-70.1,92.98c-21.87,29.01-63.91,33.03-90.87,8.68l-57.44-51.85c-27.72-25.02-71.11-19.98-92.35,10.73l-78.95,114.14"/>
      </g>
      <g>
        <path class="cls-1" d="m46,1185.77l193.64,69.61c24.65,8.86,50.88-8.48,52.39-34.63l.05-.8c2.06-35.75,33.95-62.29,69.48-57.83l105.52,13.25c34.91,4.38,66.45-21.19,69.37-56.26l5.29-63.5c2.82-33.83,32.37-59.07,66.22-56.57l119.99,8.86c20.92,1.54,41.19-7.61,53.86-24.32l106.09-139.92"/>
        <path class="cls-1" d="m1758.05,618.12l-57.06-37.87c-28.65-19.02-67.31-11.03-86.08,17.79l-81.73,125.54c-20.92,32.14-65.74,37.7-93.88,11.65l-61.32-56.74c-26.25-24.29-67.56-21.34-90.08,6.44l-74.49,91.84c-22.93,28.27-65.2,30.74-91.26,5.32l-57.69-56.26c-26.64-25.98-70.02-22.74-92.51,6.92l-84.07,110.88"/>
      </g>
      <g>
        <path class="cls-1" d="m34.43,1148.16l192.36,76.31c23.8,9.44,50.12-6.11,53.34-31.51l.21-1.63c4.41-34.81,36.85-59,71.47-53.28l104.49,17.25c34.54,5.7,66.93-18.36,71.44-53.07l7.94-61.04c4.35-33.49,34.76-57.31,68.32-53.51l117.1,13.25c20.74,2.35,41.26-5.92,54.59-21.98l112.21-135.3"/>
        <path class="cls-1" d="m1769.62,655.73l-53.99-40.98c-28.04-21.28-68.16-14.91-88.24,14l-84.46,121.66c-22.02,31.72-67.4,35.75-94.66,8.39l-60.28-60.49c-25.33-25.42-66.91-24.03-90.48,3.03l-78.83,90.48c-23.96,27.5-66.38,28.41-91.51,1.98l-57.72-60.73c-25.54-26.87-68.82-25.41-92.48,3.12l-89.08,107.41"/>
      </g>
      <g>
        <path class="cls-1" d="m24.52,1110.08l190.79,83c22.92,9.97,49.2-3.77,54.08-28.29l.54-2.73c6.7-33.66,39.52-55.44,73.15-48.53l103.34,21.24c34.1,7.01,67.27-15.48,73.38-49.76l10.43-58.52c5.89-33.07,37.1-55.4,70.3-50.31l114.01,17.49c20.54,3.15,41.29-4.22,55.24-19.62l118.11-130.4"/>
        <path class="cls-1" d="m1779.53,693.81l-50.92-43.89c-27.27-23.5-68.77-18.86-90.16,10.09l-86.95,117.65c-23.11,31.26-68.98,33.73-95.3,5.12l-59.08-64.21c-24.38-26.5-66.15-26.67-90.74-.36l-83.12,88.91c-24.95,26.69-67.47,26.06-91.63-1.35l-57.5-65.26c-24.41-27.7-67.5-28-92.29-.63l-93.96,103.73"/>
      </g>
      <g>
        <path class="cls-1" d="m16.28,1071.61l188.92,89.64c22,10.44,48.1-1.5,54.58-24.97l1.13-4.08c8.93-32.31,41.95-51.63,74.49-43.59l102.06,25.22c33.6,8.3,67.48-12.57,75.18-46.32l12.76-55.98c7.43-32.57,39.36-53.37,72.15-46.98l110.72,21.56c20.32,3.96,41.28-2.51,55.83-17.24l123.79-125.22"/>
        <path class="cls-1" d="m1787.77,732.28l-47.84-46.63c-26.34-25.67-69.12-22.84-91.85,6.07l-89.21,113.52c-24.17,30.76-70.48,31.65-95.81,1.83l-57.7-67.91c-23.39-27.53-65.29-29.25-90.86-3.74l-89.27,89.07c-24.87,24.81-65.73,22.74-87.96-4.46l-58.78-71.93c-23.26-28.47-66.07-30.5-91.92-4.35l-98.71,99.85"/>
      </g>
      <g>
        <path class="cls-1" d="m9.72,1032.81l186.73,96.23c21.05,10.85,46.84.7,54.84-21.59l2.02-5.63c11.04-30.75,44.09-47.61,75.47-38.51l100.65,29.19c33.04,9.58,67.55-9.62,76.83-42.75l14.95-53.4c8.95-31.98,41.56-51.19,73.87-43.53l107.25,25.44c20.08,4.76,41.21-.8,56.35-14.83l129.22-119.78"/>
        <path class="cls-1" d="m1794.33,771.08l-44.75-49.21c-25.26-27.78-69.23-26.84-93.28,1.98l-91.23,109.28c-25.23,30.22-71.89,29.51-96.19-1.46l-56.15-71.57c-22.36-28.51-64.33-31.78-90.85-7.09l-93.47,87.03c-25.75,23.98-66.58,20.44-87.83-7.61l-58-76.57c-22.1-29.17-64.55-32.9-91.39-8.02l-103.32,95.77"/>
      </g>
      <g>
        <path class="cls-1" d="m4.86,993.76l177.21,98.83c23.84,13.3,53.95,3.32,65.14-21.58h0c13.03-29,45.92-43.41,76.07-33.32l99.08,33.15c32.42,10.84,67.48-6.65,78.32-39.07l16.99-50.82c10.46-31.31,43.66-48.89,75.44-39.95l103.6,29.13c19.82,5.57,41.11.93,56.8-12.4l134.4-114.1"/>
        <path class="cls-1" d="m1799.19,810.13l-41.66-51.65c-24.04-29.8-69.09-30.84-94.47-2.19l-93,104.96c-26.26,29.64-73.21,27.32-96.43-4.75l-54.42-75.17c-21.31-29.43-63.27-34.26-90.7-10.42l-97.58,84.78c-26.6,23.11-67.35,18.12-87.59-10.72l-56.97-81.2c-20.92-29.81-62.94-35.2-90.7-11.63l-107.77,91.49"/>
      </g>
      <g>
        <path class="cls-1" d="m1.71,954.54l172.51,103.82c23.91,14.39,55,6,68.42-18.47h0c14.86-27.08,47.41-39.06,76.27-28.07l97.34,37.07c31.73,12.08,67.26-3.65,79.64-35.27l18.89-48.24c11.96-30.54,45.67-46.45,76.85-36.26l99.78,32.62c19.53,6.39,40.95,2.66,57.18-9.94l139.3-108.17"/>
        <path class="cls-1" d="m1802.34,849.35l-38.58-53.96c-22.68-31.73-68.71-34.81-95.42-6.39l-94.53,100.55c-27.27,29.01-74.45,25.09-96.56-8.04l-52.53-78.72c-20.22-30.31-62.13-36.67-90.43-13.73l-101.58,82.33c-27.41,22.21-68.02,15.79-87.23-13.81l-55.69-85.8c-19.73-30.4-61.23-37.41-89.85-15.19l-112.06,87.02"/>
      </g>
      <g>
        <path class="cls-1" d="m.27,915.22l167.34,108.41c24.08,15.6,56.24,8.87,72.04-15.09h0c16.49-25.01,48.53-34.61,76.06-22.8l95.42,40.96c30.98,13.3,66.89-.65,80.79-31.36l20.65-45.67c13.43-29.69,47.58-43.88,78.09-32.44l95.8,35.9c19.22,7.2,40.75,4.41,57.5-7.46l143.92-102.01"/>
        <path class="cls-1" d="m1803.78,888.67l-35.5-56.14c-21.21-33.55-68.09-38.74-96.12-10.62l-95.81,96.09c-28.27,28.35-75.61,22.8-96.55-11.32l-50.46-82.19c-19.11-31.13-60.89-39.02-90.04-17l-105.46,79.69c-28.18,21.29-68.61,13.44-86.76-16.86l-54.16-90.37c-18.53-30.92-59.45-39.52-88.86-18.67l-116.18,82.35"/>
      </g>
      <g>
        <path class="cls-1" d="m.55,875.87l168.63,117.38c20.45,14.24,48.46,10.05,63.85-9.55l5.21-6.63c17.92-22.82,49.29-30.13,75.45-17.57l93.31,44.79c30.16,14.48,66.37,2.36,81.74-27.36l22.3-43.12c14.87-28.75,49.38-41.18,79.16-28.52l91.69,38.96c18.88,8.02,40.51,6.17,57.75-4.95l148.25-95.65"/>
        <path class="cls-1" d="m1803.5,928.01l-32.41-58.22c-19.64-35.28-67.25-42.6-96.58-14.86l-96.84,91.58c-29.24,27.65-76.67,20.47-96.43-14.59l-48.22-85.58c-17.97-31.91-59.57-41.31-89.52-20.23l-109.21,76.85c-28.92,20.35-69.1,11.09-86.19-19.87l-52.38-94.88c-17.32-31.38-57.6-41.52-87.72-22.09l-120.12,77.5"/>
      </g>
      <g>
        <path class="cls-1" d="m2.55,836.58l155.69,116.26c24.66,18.42,59.24,15.3,80.21-7.23h0c19.12-20.55,49.68-25.66,74.44-12.44l90.98,48.56c29.29,15.63,65.69,5.37,82.5-23.26l23.84-40.6c16.27-27.71,51.05-38.36,80.04-24.5l87.45,41.79c18.52,8.85,40.21,7.94,57.93-2.42l152.26-89.08"/>
        <path class="cls-1" d="m1801.5,967.31l-29.31-60.19c-17.96-36.88-66.19-46.4-96.81-19.1l-97.63,87.04c-30.19,26.91-77.65,18.11-96.18-17.84l-45.81-88.88c-16.82-32.63-58.17-43.53-88.89-23.43l-112.82,73.83c-29.62,19.38-69.51,8.73-85.51-22.84l-50.35-99.32c-16.11-31.79-55.68-43.43-86.44-25.43l-123.86,72.47"/>
      </g>
      <g>
        <path class="cls-1" d="m6.25,797.4l151.58,121.31c23.73,18.99,57.73,17.94,80.24-2.48l2.19-1.99c20.09-18.22,49.7-21.24,73.05-7.44l88.43,52.25c28.35,16.75,64.85,8.37,83.05-19.08l25.28-38.12c17.63-26.59,52.58-35.41,80.72-20.38l83.09,44.38c18.12,9.68,39.87,9.73,58.04.14l155.97-82.33"/>
        <path class="cls-1" d="m1797.8,1006.48l-26.21-62.07c-16.2-38.37-64.92-50.1-96.81-23.31l-98.18,82.48c-31.11,26.14-78.54,15.7-95.81-21.07l-43.24-92.08c-15.64-33.3-56.7-45.68-88.14-26.58l-116.28,70.64c-30.28,18.39-69.82,6.36-84.73-25.78l-48.08-103.67c-14.9-32.14-53.69-45.22-85.02-28.69l-127.41,67.26"/>
      </g>
      <g>
        <path class="cls-1" d="m11.67,758.43l148.22,127.03c22.17,19,54.6,19.92,77.81,2.2l5.95-4.54c20.82-15.89,49.39-16.95,71.33-2.65l85.64,55.83c27.35,17.83,63.85,11.34,83.38-14.82l26.63-35.68c18.94-25.37,53.98-32.36,81.2-16.18l78.63,46.73c17.7,10.52,39.47,11.54,58.08,2.73l159.34-75.42"/>
        <path class="cls-1" d="m1792.38,1045.46l-23.09-63.86c-14.37-39.74-63.45-53.71-96.59-27.49l-98.48,77.92c-32.01,25.32-79.34,13.27-95.33-24.29l-40.51-95.15c-14.44-33.92-55.15-47.76-87.27-29.69l-119.58,67.27c-30.9,17.39-70.06,4-83.85-28.66l-45.58-107.92c-13.7-32.43-51.66-46.92-83.48-31.86l-130.75,61.89"/>
      </g>
      <g>
        <path class="cls-1" d="m18.77,719.73l144.47,132.55c20.65,18.94,51.45,21.65,75.08,6.59l10.25-6.53c21.33-13.59,48.77-12.83,69.32,1.91l82.62,59.28c26.29,18.87,62.68,14.28,83.48-10.51l27.92-33.28c20.19-24.07,55.22-29.19,81.46-11.9l74.09,48.82c17.24,11.36,39.02,13.37,58.06,5.36l162.37-68.35"/>
        <path class="cls-1" d="m1785.28,1084.16l-19.95-65.57c-12.47-40.98-61.79-57.2-96.15-31.62l-98.54,73.36c-32.88,24.48-80.05,10.8-94.73-27.47l-37.63-98.11c-13.23-34.48-53.52-49.78-86.3-32.75l-122.71,63.75c-31.49,16.36-70.2,1.64-82.87-31.5l-42.83-112.05c-12.49-32.68-49.57-48.51-81.81-34.94l-133.87,56.36"/>
      </g>
      <g>
        <path class="cls-1" d="m27.56,681.38l140.35,137.83c19.17,18.83,48.3,23.13,72.1,10.65l15-7.87c21.62-11.34,47.89-8.91,67.06,6.21l79.35,62.57c25.18,19.86,61.36,17.19,83.35-6.15l29.14-30.92c21.38-22.69,56.3-25.93,81.49-7.56l69.47,50.65c16.75,12.22,38.51,15.23,57.95,8.02l165.06-61.16"/>
        <path class="cls-1" d="m1776.49,1122.51l-16.78-67.19c-10.51-42.1-59.96-60.58-95.51-35.7l-98.36,68.84c-33.72,23.6-80.66,8.31-94.01-30.63l-34.6-100.93c-12-35-51.84-51.72-85.22-35.76l-125.66,60.07c-32.04,15.31-70.26-.71-81.8-34.29l-39.87-116.05c-11.29-32.87-47.43-49.99-80.02-37.92l-136.76,50.67"/>
      </g>
      <g>
        <path class="cls-1" d="m38.02,643.44l135.85,142.86c17.75,18.67,45.21,24.38,68.93,14.35l20.09-8.49c21.73-9.18,46.78-5.22,64.61,10.23l75.83,65.69c24.01,20.8,59.87,20.04,82.98-1.76l30.31-28.6c22.5-21.23,57.21-22.58,81.29-3.17l64.8,52.22c16.22,13.07,37.94,17.11,57.77,10.73l167.39-53.84"/>
        <path class="cls-1" d="m1766.04,1160.45l-13.59-68.73c-8.52-43.09-57.97-63.83-94.68-39.72l-97.95,64.34c-34.54,22.69-81.19,5.79-93.19-33.75l-31.43-103.61c-10.76-35.47-50.08-53.59-84.04-38.72l-128.42,56.24c-32.54,14.25-70.24-3.06-80.63-37.03l-36.68-119.9c-10.1-33.01-45.26-51.37-78.12-40.8l-139.42,44.84"/>
      </g>
      <g>
        <path class="cls-1" d="m50.11,606l131,147.59c16.39,18.46,42.18,25.42,65.63,17.7l25.4-8.36c21.67-7.13,45.5-1.77,62.02,13.96l72.08,68.61c22.79,21.69,58.23,22.83,82.36,2.65l31.45-26.31c23.54-19.69,57.94-19.15,80.85,1.26l60.09,53.52c15.65,13.94,37.3,19.01,57.51,13.47l169.36-46.43"/>
        <path class="cls-1" d="m1753.94,1197.89l-10.36-70.19c-6.49-43.96-55.81-66.95-93.65-43.66l-97.3,59.9c-35.33,21.75-81.62,3.26-92.25-36.84l-28.13-106.14c-9.51-35.89-48.27-55.38-82.75-41.62l-130.99,52.28c-33.01,13.18-70.13-5.4-79.38-39.72l-33.29-123.58c-8.92-33.1-43.05-52.65-76.11-43.58l-141.84,38.88"/>
      </g>
      <g>
        <path class="cls-1" d="m63.83,569.12l125.81,152.02c15.09,18.23,39.26,26.26,62.26,20.68l30.82-7.48c21.47-5.21,44.08,1.42,59.34,17.4l68.09,71.31c21.52,22.53,56.43,25.56,81.5,7.06l32.57-24.04c24.49-18.07,58.49-15.65,80.17,5.71l55.36,54.54c15.04,14.81,36.59,20.94,57.17,16.25l170.97-38.94"/>
        <path class="cls-1" d="m1740.22,1234.76l-7.09-71.56c-4.43-44.7-53.52-69.93-92.45-47.52l-96.43,55.52c-36.08,20.77-81.97.7-91.21-39.89l-24.7-108.51c-8.25-36.26-46.39-57.1-81.37-44.46l-133.36,48.2c-33.45,12.09-69.95-7.72-78.04-42.35l-29.69-127.1c-7.74-33.15-40.81-53.82-74-46.26l-144,32.79"/>
      </g>
      <g>
        <path class="cls-1" d="m79.15,532.88l120.31,156.12c13.86,17.98,36.45,26.93,58.86,23.32l36.23-5.84c21.16-3.41,42.58,4.38,56.62,20.58l63.89,73.77c20.19,23.32,54.48,28.2,80.38,11.45l33.67-21.77c25.36-16.4,58.85-12.1,79.24,10.17l50.63,55.29c14.37,15.69,35.8,22.9,56.73,19.08l172.19-31.39"/>
        <path class="cls-1" d="m1724.9,1271.01l-3.79-72.85c-2.36-45.33-51.09-72.77-91.07-51.3l-95.34,51.21c-36.81,19.77-82.22-1.87-90.06-42.9l-21.15-110.71c-6.99-36.58-44.47-58.74-79.89-47.24l-135.51,44c-33.84,10.99-69.68-10.03-76.61-44.93l-25.9-130.43c-6.58-33.15-38.54-54.88-71.79-48.82l-145.91,26.59"/>
      </g>
      <g>
        <path class="cls-1" d="m96.03,497.34l114.5,159.87c12.69,17.72,33.76,27.45,55.48,25.63l41.53-3.48c20.78-1.74,41.03,7.1,53.89,23.51l59.49,75.96c18.83,24.04,52.38,30.75,79.01,15.8l34.75-19.51c26.13-14.67,59.01-8.51,78.06,14.62l45.92,55.75c13.65,16.58,34.92,24.89,56.19,21.96l173.04-23.8"/>
        <path class="cls-1" d="m1708.02,1306.55l-.44-74.06c-.27-45.83-48.54-75.47-89.53-54.99l-94.03,46.98c-37.5,18.74-82.38-4.45-88.8-45.87l-17.49-112.74c-5.72-36.85-42.49-60.31-78.31-49.96l-137.45,39.69c-34.19,9.87-69.33-12.33-75.1-47.45l-21.93-133.57c-5.44-33.1-36.26-55.84-69.49-51.27l-147.55,20.29"/>
      </g>
      <g>
        <path class="cls-1" d="m114.45,462.56l108.43,163.26c11.59,17.44,31.21,27.85,52.15,27.64l46.64-.46c20.33-.2,39.46,9.6,51.18,26.22l54.9,77.87c17.42,24.71,50.14,33.21,77.39,20.11l35.82-17.23c26.8-12.89,58.97-4.89,76.62,19.04l41.24,55.93c12.87,17.46,33.95,26.9,55.55,24.89l173.51-16.19"/>
        <path class="cls-1" d="m1689.6,1341.32l2.95-75.17c1.82-46.22-45.87-78.02-87.84-58.58l-92.5,42.85c-38.15,17.67-82.45-7.04-87.45-48.79l-13.73-114.58c-4.44-37.07-40.46-61.8-76.65-52.62l-139.17,35.29c-34.5,8.75-68.91-14.6-73.51-49.9l-17.79-136.5c-4.3-33.01-33.96-56.71-67.11-53.61l-148.92,13.89"/>
      </g>
      <g>
        <path class="cls-1" d="m134.36,428.63l102.11,166.28c10.55,17.17,28.8,28.14,48.91,29.38l51.47,3.18c19.85,1.23,37.9,11.92,48.51,28.74l50.16,79.48c15.97,25.31,47.77,35.56,75.52,24.34l36.89-14.91c27.37-11.06,58.74-1.26,74.93,23.43l36.62,55.83c12.03,18.35,32.88,28.95,54.79,27.86l173.6-8.58"/>
        <path class="cls-1" d="m1669.69,1375.26l6.39-76.19c3.9-46.49-43.1-80.42-86-62.07l-90.77,38.83c-38.78,16.59-82.42-9.63-85.99-51.66l-9.87-116.24c-3.16-37.25-38.38-63.21-74.9-55.21l-140.67,30.81c-34.78,7.62-68.4-16.86-71.84-52.3l-13.49-139.21c-3.19-32.88-31.65-57.46-64.64-55.83l-150.02,7.42"/>
      </g>
    </g>
  </g>
</svg>